<?xml version="1.0" encoding="UTF-8"?>
<svg version="1.1" xmlns="http://www.w3.org/2000/svg" width="554" height="554">
<path d="M0 0 C182.82 0 365.64 0 554 0 C554 182.82 554 365.64 554 554 C371.18 554 188.36 554 0 554 C0 371.18 0 188.36 0 0 Z " fill="#FDFDFD" transform="translate(0,0)"/>
<path d="M0 0 C0.87519287 -0.00350464 1.75038574 -0.00700928 2.65209961 -0.01062012 C5.54272407 -0.01941746 8.43310355 -0.01359632 11.32373047 -0.00683594 C13.33104499 -0.00818292 15.3383592 -0.01012372 17.34567261 -0.01263428 C21.55046701 -0.01558263 25.75517641 -0.01129623 29.95996094 -0.00195312 C35.35846767 0.0094559 40.75677586 0.00287091 46.15527534 -0.00909805 C50.29871121 -0.01631191 54.44209969 -0.01403117 58.58553696 -0.00884247 C60.57672016 -0.00750542 62.56790762 -0.00915562 64.55908585 -0.01380157 C67.33638222 -0.01886061 70.11335298 -0.01116607 72.890625 0 C73.71871674 -0.00404846 74.54680847 -0.00809692 75.3999939 -0.01226807 C81.08738681 0.0302579 81.08738681 0.0302579 83.31591797 2.25878906 C82.98894237 4.87459385 82.49552728 6.89957043 81.31591797 9.25878906 C80.22455032 9.2646553 79.13318268 9.27052155 78.00874329 9.27656555 C67.72357076 9.33377878 57.43860994 9.40653318 47.15365314 9.49450397 C41.86604142 9.53923124 36.57850718 9.57848227 31.29077148 9.60522461 C26.18779394 9.63123392 21.08511414 9.67161975 15.98232079 9.72197533 C14.03552135 9.73866005 12.0886704 9.75016432 10.14180946 9.75640297 C7.41477877 9.76602652 4.68851258 9.79406492 1.96166992 9.82641602 C1.15678131 9.82498093 0.3518927 9.82354584 -0.47738647 9.82206726 C-5.03391572 9.89851446 -8.12609956 10.31808018 -11.68408203 13.25878906 C-13.83393062 16.60130597 -13.93923507 19.35288993 -13.95150757 23.28012085 C-13.96003754 24.51382919 -13.9685675 25.74753754 -13.97735596 27.01863098 C-13.97665696 28.38302625 -13.97573391 29.74742142 -13.97460938 31.11181641 C-13.98059476 32.5509323 -13.98740033 33.99004498 -13.9949646 35.42915344 C-14.01263086 39.3362368 -14.01732024 43.24323256 -14.01859617 47.150352 C-14.02001797 49.59205123 -14.02428811 52.0337282 -14.02959061 54.47542191 C-14.04809292 62.99567326 -14.05626096 71.51586204 -14.0546875 80.03613281 C-14.05348602 87.97509879 -14.07458889 95.91379292 -14.10617483 103.8526901 C-14.13233645 110.67150474 -14.14305485 117.49023059 -14.14177668 124.30909503 C-14.14126701 128.38045026 -14.1469527 132.45156391 -14.16813278 136.52286911 C-14.18751344 140.35283262 -14.1876412 144.18232404 -14.17309952 148.01230431 C-14.17101008 149.41594445 -14.17572051 150.81961412 -14.18782043 152.22320366 C-14.50405299 162.12243992 -14.50405299 162.12243992 -9.68408203 170.25878906 C-6.23100317 172.56084164 -4.93896299 172.5125076 -0.86997986 172.52380371 C0.342892 172.53207687 1.55576385 172.54035004 2.8053894 172.5488739 C4.15142834 172.54804931 5.49746717 172.54705166 6.84350586 172.54589844 C8.25940851 172.55192183 9.67530758 172.55884587 11.09120178 172.56660461 C14.14087539 172.58150017 17.19048343 172.59024438 20.24019051 172.59431458 C25.05915521 172.60102033 29.87797929 172.62276442 34.69688416 172.64685059 C45.79467157 172.70001248 56.89250229 172.73338235 67.99036407 172.76660919 C78.16329107 172.79726603 88.33615781 172.83205332 98.50900644 172.88291979 C103.30291195 172.90631678 108.0967196 172.92002128 112.89067662 172.92641449 C115.86808286 172.9323369 118.84540933 172.94641871 121.82277489 172.96275902 C123.20711358 172.96865378 124.59147171 172.97110337 125.97582245 172.9699192 C127.86016454 172.9687665 129.74450104 172.98089141 131.62879944 172.99377441 C132.68496491 172.99670753 133.74113039 172.99964066 134.82930088 173.00266266 C137.31591797 173.25878906 137.31591797 173.25878906 139.31591797 175.25878906 C139.56591797 177.75878906 139.56591797 177.75878906 139.31591797 180.25878906 C136.65076491 182.92394212 135.38682144 182.51220161 131.66244507 182.51948547 C129.85820572 182.53011269 129.85820572 182.53011269 128.01751709 182.54095459 C126.67736779 182.5386605 125.33721885 182.53615076 123.99707031 182.53344727 C122.59105152 182.53779278 121.1850351 182.54297539 119.77902222 182.54893494 C115.95225272 182.56235991 112.12558178 182.56289928 108.29879332 182.56037164 C105.1033068 182.55930335 101.90784034 182.56418213 98.71235812 182.56897706 C91.16857513 182.58008633 83.62484191 182.58050302 76.08105469 182.57446289 C68.30694377 182.5684337 60.53301433 182.58070391 52.75893438 182.60203296 C46.0819548 182.61967637 39.40503282 182.62564563 32.7280308 182.62239522 C28.74158402 182.62058509 24.75526641 182.62319056 20.76884079 182.63710976 C17.01446564 182.64972655 13.26037157 182.64770786 9.50600052 182.63469887 C7.47982291 182.63122141 5.45363658 182.64248535 3.42749023 182.65426636 C-4.18377853 182.61049671 -10.82926923 182.46889449 -16.92626953 177.39160156 C-17.46509766 176.72902344 -18.00392578 176.06644531 -18.55908203 175.38378906 C-19.11337891 174.72636719 -19.66767578 174.06894531 -20.23876953 173.39160156 C-23.2219042 168.9894623 -23.93493934 165.24287475 -23.94477844 159.96534729 C-23.95186325 158.69660767 -23.95894806 157.42786804 -23.96624756 156.12068176 C-23.96395394 154.72213709 -23.96144426 153.32359276 -23.95874023 151.92504883 C-23.96308932 150.446378 -23.96827313 148.96770942 -23.97422791 147.48904419 C-23.98760775 143.47870929 -23.98819773 139.46846869 -23.98566461 135.45811582 C-23.98459425 132.1082003 -23.9894799 128.75830381 -23.99427003 125.40839237 C-24.00536161 117.50458757 -24.00580452 109.6008303 -23.99975586 101.69702148 C-23.99371488 93.54733903 -24.00603099 85.39782917 -24.02732593 77.24817616 C-24.04494684 70.24675445 -24.05094253 63.24538765 -24.04768819 56.24394459 C-24.04587603 52.06422446 -24.04850474 47.88462747 -24.06240273 43.70492744 C-24.07498453 39.77405602 -24.07303377 35.84345354 -24.05999184 31.91258621 C-24.0576273 30.4718625 -24.06035639 29.03111984 -24.06861496 27.59041786 C-24.07909338 25.6200416 -24.06917302 23.64958862 -24.05830383 21.67921448 C-24.05847157 20.5777134 -24.05863932 19.47621233 -24.05881214 18.34133244 C-23.38623109 12.80865646 -20.95950207 9.03438049 -16.74658203 5.50878906 C-16.07755859 4.93644531 -15.40853516 4.36410156 -14.71923828 3.77441406 C-9.90495744 0.1891147 -5.92209338 -0.02909479 0 0 Z " fill="#272F35" transform="translate(214.68408203125,133.7412109375)"/>
<path d="M0 0 C0.73863281 0.31195313 1.47726562 0.62390625 2.23828125 0.9453125 C4.1875 1.875 4.1875 1.875 7 4 C8.0625 7.125 8.0625 7.125 8 10 C7.34 10.66 6.68 11.32 6 12 C1.29319429 11.8998552 -1.64599944 10.68416905 -5.75 8.4375 C-14.38825298 4.32745985 -24.89815022 4.7049757 -34.12890625 6.6640625 C-36.63266012 7.56525716 -38.73677323 8.60468955 -41 10 C-41.77472656 10.474375 -42.54945313 10.94875 -43.34765625 11.4375 C-51.21385393 16.90050206 -56.9074883 25.27680727 -59.56640625 34.4921875 C-61.73404669 47.0293511 -59.50805029 58.04312387 -52.72265625 68.6796875 C-47.10826108 76.24193405 -38.37856817 82.28059584 -29 84 C-17.13724614 84.93251029 -7.17752851 83.50173882 2.4375 76.1875 C12.408576 67.52462917 15.9868376 57.55402038 17.60546875 44.58984375 C18 42 18 42 19 41 C22 40.875 22 40.875 25 41 C26.67691362 42.67691362 26.17155127 44.70338288 26.1875 47 C26.01676062 60.23230173 21.42851319 70.14129518 12.32421875 79.7421875 C1.81877596 89.94747479 -10.20307617 94.43025089 -24.78979492 94.4387207 C-35.71110748 94.10807895 -45.89125903 89.2667498 -54 82 C-54 81.34 -54 80.68 -54 80 C-54.5878125 79.77183594 -55.175625 79.54367187 -55.78125 79.30859375 C-63.16045569 74.95642138 -66.72750661 63.84376751 -69 56 C-72.14396625 43.02051771 -69.92255415 30.90441078 -63.5078125 19.30078125 C-60.78738804 15.03690354 -57.80080627 11.35885206 -54 8 C-53.06414062 7.16855469 -53.06414062 7.16855469 -52.109375 6.3203125 C-37.47632473 -5.94407855 -17.3727767 -8.21876875 0 0 Z " fill="#22292F" transform="translate(324,205)"/>
<path d="M0 0 C0.103125 0.639375 0.20625 1.27875 0.3125 1.9375 C0.539375 2.618125 0.76625 3.29875 1 4 C1.99 4.33 2.98 4.66 4 5 C4.33 4.01 4.66 3.02 5 2 C5.70396912 2.81205399 6.40793823 3.62410797 7.13323975 4.46076965 C12.19576366 8.6303034 18.64786789 7.6850743 24.86816406 7.62768555 C26.28451477 7.63286754 27.70085883 7.64027002 29.1171875 7.64971924 C32.15879191 7.6652535 35.19984506 7.66513335 38.24146271 7.65271568 C43.04817022 7.63315601 47.85438834 7.64838063 52.66107178 7.66816711 C60.25880964 7.69529053 67.85634751 7.69881189 75.45412421 7.69239408 C89.07448957 7.68143957 102.69479573 7.70598686 116.31509948 7.74614173 C121.09650492 7.75923975 125.87772761 7.76045643 130.65914202 7.7520088 C133.62669135 7.7483941 136.59419359 7.75267186 139.56173706 7.7588501 C140.94125286 7.75993905 142.32077627 7.75755409 143.70027924 7.7515049 C145.5778598 7.7436643 147.45548193 7.74904082 149.33306885 7.75517273 C150.38533787 7.75420939 151.43760689 7.75324606 152.52176285 7.75225353 C155 8 155 8 157 10 C157.25 12.5 157.25 12.5 157 15 C154.33484694 17.66515306 153.07090347 17.25341255 149.3465271 17.26069641 C147.54228775 17.27132362 147.54228775 17.27132362 145.70159912 17.28216553 C144.36144982 17.27987143 143.02130088 17.2773617 141.68115234 17.2746582 C140.27513355 17.27900372 138.86911713 17.28418633 137.46310425 17.29014587 C133.63633475 17.30357085 129.80966382 17.30411022 125.98287535 17.30158257 C122.78738883 17.30051429 119.59192238 17.30539307 116.39644015 17.310188 C108.85265716 17.32129727 101.30892394 17.32171395 93.76513672 17.31567383 C85.9910258 17.30964464 78.21709636 17.32191485 70.44301641 17.3432439 C63.76603683 17.36088731 57.08911485 17.36685657 50.41211283 17.36360615 C46.42566606 17.36179603 42.43934845 17.3644015 38.45292282 17.37832069 C34.69854767 17.39093748 30.94445361 17.38891879 27.19008255 17.37590981 C25.16390494 17.37243234 23.13771861 17.38369629 21.11157227 17.39547729 C13.44638816 17.3513976 6.77319237 17.21868606 0.6875 12.02734375 C0.130625 11.33769531 -0.42625 10.64804687 -1 9.9375 C-1.5775 9.24527344 -2.155 8.55304688 -2.75 7.83984375 C-4 6 -4 6 -4 4 C-3.01 4 -2.02 4 -1 4 C-0.67 2.68 -0.34 1.36 0 0 Z " fill="#1E262D" transform="translate(197,299)"/>
<path d="M0 0 C1 1 1 1 1.0625 4.0625 C1.041875 5.031875 1.02125 6.00125 1 7 C-0.14855469 7.61746094 -1.29710937 8.23492187 -2.48046875 8.87109375 C-25.90100227 21.58495303 -49.30002919 37.69426228 -63.1953125 61.00390625 C-66.1031595 65.83143579 -66.1031595 65.83143579 -68 68 C-70.5625 68.375 -70.5625 68.375 -73 68 C-75.56162135 65.43837865 -76.01882955 63.20001412 -77.125 59.75 C-80.18104976 50.69188271 -84.77388383 42.60236953 -90.26171875 34.7734375 C-92 32 -92 32 -91.75 29.125 C-91.5025 28.42375 -91.255 27.7225 -91 27 C-88.8125 26.1875 -88.8125 26.1875 -86 26 C-81.92765523 29.49915058 -79.17052104 33.48860743 -76.375 38 C-75.80265625 38.90492188 -75.80265625 38.90492188 -75.21875 39.828125 C-73.09881703 43.1907773 -71.031788 46.58349024 -69 50 C-68.3709375 49.21496094 -67.741875 48.42992187 -67.09375 47.62109375 C-62.73643851 42.2470477 -58.45435068 37.16789292 -53.09375 32.75390625 C-50.64855772 30.70560152 -48.37466568 28.50975383 -46.0625 26.3125 C-36.10131368 17.27059671 -24.90713227 9.86031028 -13.25 3.1875 C-12.49968506 2.74857422 -11.74937012 2.30964844 -10.97631836 1.85742188 C-4.41267831 -1.77686092 -4.41267831 -1.77686092 0 0 Z " fill="#242930" transform="translate(378,207)"/>
<path d="M0 0 C1.79244141 0.01740234 1.79244141 0.01740234 3.62109375 0.03515625 C5.41740234 0.04869141 5.41740234 0.04869141 7.25 0.0625 C8.17683594 0.07410156 9.10367188 0.08570313 10.05859375 0.09765625 C14.50883864 11.83329693 18.93577575 23.57695029 23.12109375 35.41015625 C23.41959229 36.24450195 23.71809082 37.07884766 24.02563477 37.93847656 C24.29561279 38.70901367 24.56559082 39.47955078 24.84375 40.2734375 C25.079729 40.94286377 25.31570801 41.61229004 25.55883789 42.30200195 C26.05859375 44.09765625 26.05859375 44.09765625 26.05859375 47.09765625 C22.42859375 47.09765625 18.79859375 47.09765625 15.05859375 47.09765625 C14.06859375 44.12765625 13.07859375 41.15765625 12.05859375 38.09765625 C6.11859375 38.09765625 0.17859375 38.09765625 -5.94140625 38.09765625 C-6.93140625 41.06765625 -7.92140625 44.03765625 -8.94140625 47.09765625 C-12.24140625 47.09765625 -15.54140625 47.09765625 -18.94140625 47.09765625 C-18.31773667 41.18878681 -16.73428845 35.89669908 -14.81640625 30.28515625 C-14.50944824 29.37604492 -14.20249023 28.46693359 -13.88623047 27.53027344 C-4.53297941 0.15049732 -4.53297941 0.15049732 0 0 Z " fill="#252C33" transform="translate(242.94140625,337.90234375)"/>
<path d="M0 0 C3.63 0 7.26 0 11 0 C11 5.94 11 11.88 11 18 C11.66 18 12.32 18 13 18 C13.21527344 17.46632813 13.43054688 16.93265625 13.65234375 16.3828125 C15.49576844 13.12342392 18.00013373 10.5718823 20.5625 7.875 C24.18633907 4.23596593 24.18633907 4.23596593 27 0 C31.29 0 35.58 0 40 0 C38.80513375 4.77946501 36.44553117 6.8620661 33 10.125 C29.02011003 13.68912684 29.02011003 13.68912684 26 18 C25.34 18 24.68 18 24 18 C24.51498047 18.77190674 25.02996094 19.54381348 25.56054688 20.33911133 C27.46695352 23.2036814 29.36711698 26.07218931 31.26318359 28.94360352 C32.08525757 30.18580176 32.90979026 31.42637648 33.73681641 32.6652832 C34.92479363 34.4458229 36.10382156 36.23200394 37.28125 38.01953125 C37.99345703 39.09307861 38.70566406 40.16662598 39.43945312 41.27270508 C41 44 41 44 41 47 C36.84969823 47.61334509 33.12912694 47.83824382 29 47 C25.79910232 44.14328486 24.00163203 40.75838355 22 37 C21.03071059 35.45210416 20.05260586 33.90966409 19.0625 32.375 C18.0415625 30.704375 18.0415625 30.704375 17 29 C14.40780577 30.56428964 14.40780577 30.56428964 12 33 C11.22080402 36.22363165 11.22080402 36.22363165 11.25 39.6875 C11.05510907 45.94489093 11.05510907 45.94489093 10 47 C6.7 47 3.4 47 0 47 C0 31.49 0 15.98 0 0 Z " fill="#222930" transform="translate(335,338)"/>
<path d="M0 0 C3.34129737 2.07466177 5.7887732 4.74090793 7.79296875 8.11328125 C8.23046875 10.98828125 8.23046875 10.98828125 7.79296875 13.11328125 C6.79296875 14.11328125 6.79296875 14.11328125 3.04296875 14.55078125 C0.83984375 14.546875 0.83984375 14.546875 -1.20703125 14.11328125 C-2.87369792 12.11328125 -4.54036458 10.11328125 -6.20703125 8.11328125 C-9.68058266 7.36461289 -12.98247999 7.50100562 -16.20703125 9.11328125 C-16.20703125 10.76328125 -16.20703125 12.41328125 -16.20703125 14.11328125 C-12.20022899 15.68738214 -8.35285068 17.13664533 -4.14453125 18.05078125 C1.00498656 19.28747647 5.20360209 21.26756513 8.73046875 25.36328125 C10.14297889 29.01918986 10.46271449 32.28293766 9.79296875 36.11328125 C7.37469364 40.94983148 4.47743279 43.47827023 -0.20703125 46.11328125 C-6.43722637 48.16704026 -14.59723014 48.39382232 -20.76171875 46.20703125 C-25.05343482 43.68058707 -28.03007906 40.65648581 -30.20703125 36.11328125 C-29.95703125 33.23828125 -29.95703125 33.23828125 -29.20703125 31.11328125 C-26.15678261 30.82552194 -23.2452305 30.65917318 -20.20703125 31.11328125 C-18.26953125 33.55078125 -18.26953125 33.55078125 -17.20703125 36.11328125 C-14.74333593 37.34512891 -13.01758115 37.28060467 -10.26953125 37.30078125 C-9.39425781 37.31496094 -8.51898438 37.32914062 -7.6171875 37.34375 C-4.9445879 37.27991474 -4.9445879 37.27991474 -2.20703125 35.11328125 C-2.70203125 32.63828125 -2.70203125 32.63828125 -3.20703125 30.11328125 C-4.35300781 29.82195312 -5.49898438 29.530625 -6.6796875 29.23046875 C-21.78879224 25.20880014 -21.78879224 25.20880014 -27.20703125 19.11328125 C-29.07388538 15.37957299 -28.75662125 11.17899817 -28.20703125 7.11328125 C-26.49767695 3.55458242 -23.76779508 1.51382684 -20.58203125 -0.76171875 C-13.89308265 -2.99136828 -6.51067002 -2.83247706 0 0 Z " fill="#21282F" transform="translate(310.20703125,338.88671875)"/>
<path d="M0 0 C1.25554687 -0.00128906 2.51109375 -0.00257813 3.8046875 -0.00390625 C4.46178711 -0.00181152 5.11888672 0.0002832 5.79589844 0.00244141 C7.80411335 0.00779016 9.81210459 0.00249559 11.8203125 -0.00390625 C13.07585937 -0.00261719 14.33140625 -0.00132812 15.625 0 C16.78644531 0.00112793 17.94789063 0.00225586 19.14453125 0.00341797 C21.8125 0.1328125 21.8125 0.1328125 22.8125 1.1328125 C23.0666555 5.77296575 22.99772798 10.42402556 23 15.0703125 C23.01224609 16.38451172 23.02449219 17.69871094 23.03710938 19.05273438 C23.04000977 20.9312207 23.04000977 20.9312207 23.04296875 22.84765625 C23.04707764 24.00386475 23.05118652 25.16007324 23.05541992 26.35131836 C22.8125 29.1328125 22.8125 29.1328125 20.8125 31.1328125 C18.23046875 31.39160156 18.23046875 31.39160156 15 31.3984375 C13.84242188 31.40101563 12.68484375 31.40359375 11.4921875 31.40625 C10.27789062 31.39851563 9.06359375 31.39078125 7.8125 31.3828125 C6.59820312 31.39054687 5.38390625 31.39828125 4.1328125 31.40625 C2.39644531 31.40238281 2.39644531 31.40238281 0.625 31.3984375 C-0.97408203 31.39505371 -0.97408203 31.39505371 -2.60546875 31.39160156 C-5.1875 31.1328125 -5.1875 31.1328125 -7.1875 29.1328125 C-7.43041992 26.35131836 -7.43041992 26.35131836 -7.41796875 22.84765625 C-7.41603516 21.59533203 -7.41410156 20.34300781 -7.41210938 19.05273438 C-7.39986328 17.73853516 -7.38761719 16.42433594 -7.375 15.0703125 C-7.37435547 13.75224609 -7.37371094 12.43417969 -7.37304688 11.07617188 C-7.32172202 0.00711044 -7.32172202 0.00711044 0 0 Z " fill="#242C36" transform="translate(220.1875,160.8671875)"/>
<path d="M0 0 C1.15757812 -0.00257813 2.31515625 -0.00515625 3.5078125 -0.0078125 C4.72210938 -0.00007812 5.93640625 0.00765625 7.1875 0.015625 C8.40179688 0.00789062 9.61609375 0.00015625 10.8671875 -0.0078125 C12.60355469 -0.00394531 12.60355469 -0.00394531 14.375 0 C15.44105469 0.00225586 16.50710937 0.00451172 17.60546875 0.00683594 C20.1875 0.265625 20.1875 0.265625 22.1875 2.265625 C22.44628906 4.93945312 22.44628906 4.93945312 22.453125 8.296875 C22.45699219 10.10091797 22.45699219 10.10091797 22.4609375 11.94140625 C22.45320313 13.20339844 22.44546875 14.46539062 22.4375 15.765625 C22.44523437 17.02761719 22.45296875 18.28960937 22.4609375 19.58984375 C22.45835937 20.79253906 22.45578125 21.99523437 22.453125 23.234375 C22.45086914 24.34232422 22.44861328 25.45027344 22.44628906 26.59179688 C22.1875 29.265625 22.1875 29.265625 20.1875 31.265625 C17.48193359 31.49267578 17.48193359 31.49267578 14.0859375 31.4609375 C12.26835937 31.45126953 12.26835937 31.45126953 10.4140625 31.44140625 C9.14304688 31.42464844 7.87203125 31.40789062 6.5625 31.390625 C5.28375 31.38160156 4.005 31.37257813 2.6875 31.36328125 C-0.47935167 31.33964803 -3.64583424 31.30670129 -6.8125 31.265625 C-9.04389155 26.8028419 -7.99749699 20.66652168 -8 15.765625 C-8.01224609 14.50363281 -8.02449219 13.24164063 -8.03710938 11.94140625 C-8.03904297 10.73871094 -8.04097656 9.53601563 -8.04296875 8.296875 C-8.04707764 7.18892578 -8.05118652 6.08097656 -8.05541992 4.93945312 C-7.57338474 -0.36632503 -4.56141579 0.00965233 0 0 Z " fill="#293037" transform="translate(220.8125,242.734375)"/>
<path d="M0 0 C1.15757812 -0.00257813 2.31515625 -0.00515625 3.5078125 -0.0078125 C4.72210938 -0.00007812 5.93640625 0.00765625 7.1875 0.015625 C8.40179688 0.00789062 9.61609375 0.00015625 10.8671875 -0.0078125 C12.60355469 -0.00394531 12.60355469 -0.00394531 14.375 0 C15.44105469 0.00225586 16.50710937 0.00451172 17.60546875 0.00683594 C20.1875 0.265625 20.1875 0.265625 22.1875 2.265625 C22.44628906 4.93945312 22.44628906 4.93945312 22.453125 8.296875 C22.45699219 10.10091797 22.45699219 10.10091797 22.4609375 11.94140625 C22.45320313 13.20339844 22.44546875 14.46539062 22.4375 15.765625 C22.44523437 17.02761719 22.45296875 18.28960937 22.4609375 19.58984375 C22.45835937 20.79253906 22.45578125 21.99523437 22.453125 23.234375 C22.45086914 24.34232422 22.44861328 25.45027344 22.44628906 26.59179688 C22.1875 29.265625 22.1875 29.265625 20.1875 31.265625 C17.60546875 31.50854492 17.60546875 31.50854492 14.375 31.49609375 C13.21742188 31.49416016 12.05984375 31.49222656 10.8671875 31.49023438 C9.65289062 31.47798828 8.43859375 31.46574219 7.1875 31.453125 C5.97320312 31.45248047 4.75890625 31.45183594 3.5078125 31.45117188 C-5.53200576 31.40587212 -5.53200576 31.40587212 -7.8125 30.265625 C-7.86189662 26.31465522 -7.89821755 22.3638047 -7.92236328 18.41259766 C-7.93738107 16.4065114 -7.96278981 14.40051176 -7.98828125 12.39453125 C-7.99794922 10.50927734 -7.99794922 10.50927734 -8.0078125 8.5859375 C-8.01828613 7.42336426 -8.02875977 6.26079102 -8.03955078 5.06298828 C-7.60108923 -0.33904657 -4.66337811 0.00986809 0 0 Z " fill="#202630" transform="translate(220.8125,201.734375)"/>
<path d="M0 0 C0.82290527 0.00202423 1.64581055 0.00404846 2.49365234 0.00613403 C3.33331543 0.00517731 4.17297852 0.00422058 5.03808594 0.00323486 C6.81689529 0.00255306 8.59570712 0.00440737 10.37451172 0.00857544 C13.10699011 0.01392371 15.83930411 0.00863048 18.57177734 0.00222778 C20.29573604 0.00288856 22.01969464 0.00416973 23.74365234 0.00613403 C24.56655762 0.0041098 25.38946289 0.00208557 26.23730469 0 C32.0037018 0.02399599 32.0037018 0.02399599 33.11865234 1.13894653 C33.25146484 2.95144653 33.25146484 2.95144653 33.24365234 5.13894653 C33.24751953 6.22175903 33.24751953 6.22175903 33.25146484 7.32644653 C33.11865234 9.13894653 33.11865234 9.13894653 32.11865234 10.13894653 C27.49865234 10.13894653 22.87865234 10.13894653 18.11865234 10.13894653 C18.11865234 22.34894653 18.11865234 34.55894653 18.11865234 47.13894653 C14.81865234 47.13894653 11.51865234 47.13894653 8.11865234 47.13894653 C7.11865234 46.13894653 7.11865234 46.13894653 7.00512695 42.72073364 C7.00528607 41.20257665 7.01098009 39.68441424 7.02099609 38.16629028 C7.02241104 37.36864761 7.02382599 36.57100494 7.02528381 35.74919128 C7.03089918 33.19157218 7.04345422 30.63403936 7.05615234 28.07644653 C7.06116537 26.34663009 7.06572862 24.61681227 7.06982422 22.88699341 C7.0808736 18.637611 7.09814848 14.38829342 7.11865234 10.13894653 C5.72839844 10.15634888 5.72839844 10.15634888 4.31005859 10.17410278 C3.11251953 10.18312622 1.91498047 10.19214966 0.68115234 10.20144653 C-0.51380859 10.2130481 -1.70876953 10.22464966 -2.93994141 10.23660278 C-5.88134766 10.13894653 -5.88134766 10.13894653 -6.88134766 9.13894653 C-7.01416016 7.32644653 -7.01416016 7.32644653 -7.00634766 5.13894653 C-7.00892578 4.41707153 -7.01150391 3.69519653 -7.01416016 2.95144653 C-6.71178635 -1.17506664 -3.38020084 0.01406619 0 0 Z " fill="#232A32" transform="translate(181.88134765625,337.8610534667969)"/>
<path d="M0 0 C7.92802342 0 13.86661823 0.63476662 19.984375 6.078125 C26.45237798 12.8668554 28.47396207 19.96244923 28.36328125 29.1171875 C28.36402901 30.3249736 28.36402901 30.3249736 28.36479187 31.55715942 C28.36246853 33.24288426 28.35284396 34.92861372 28.33618164 36.61425781 C28.31237131 39.20148341 28.31566035 41.78769105 28.32226562 44.375 C28.31669503 46.01823533 28.30958906 47.66146633 28.30078125 49.3046875 C28.30214836 50.46555374 28.30214836 50.46555374 28.30354309 51.64987183 C28.23111216 57.08138784 28.23111216 57.08138784 26 59.3125 C22.9375 59.5 22.9375 59.5 20 59.3125 C17.95412838 57.26662838 18.83881179 52.96621807 18.82421875 50.1484375 C18.8010038 48.45181074 18.77688581 46.75519614 18.75195312 45.05859375 C18.71695066 42.3793139 18.68756534 39.70047587 18.67407227 37.02099609 C18.6585116 34.43792634 18.61823264 31.85615939 18.57421875 29.2734375 C18.57612717 28.48149994 18.57803558 27.68956238 18.58000183 26.87362671 C18.45768446 21.25853105 17.2296984 17.93531482 14 13.3125 C8.46040146 9.49963105 2.87812102 9.87340495 -3.63671875 9.71875 C-7 9.3125 -7 9.3125 -8.97265625 7.9453125 C-10 6.3125 -10 6.3125 -9.75 3.6875 C-8.21654162 -1.16845155 -4.44265377 0.03734107 0 0 Z " fill="#242A31" transform="translate(316,133.6875)"/>
<path d="M0 0 C4.29 0 8.58 0 13 0 C17.44677893 11.73707636 21.87713424 23.47915899 26.0625 35.3125 C26.36099854 36.1468457 26.65949707 36.98119141 26.96704102 37.84082031 C27.23701904 38.61135742 27.50699707 39.38189453 27.78515625 40.17578125 C28.02113525 40.84520752 28.25711426 41.51463379 28.50024414 42.2043457 C29 44 29 44 29 47 C25.37 47 21.74 47 18 47 C15.16052347 40.77499375 15.10544956 38.63092653 17 32 C16.31564972 29.10427905 15.24429201 26.72787094 14 24 C13.67 24.66 13.34 25.32 13 26 C12.34 26.33 11.68 26.66 11 27 C10.32739649 25.23141309 9.66211605 23.46003984 9 21.6875 C8.62875 20.70136719 8.2575 19.71523438 7.875 18.69921875 C7 16 7 16 7 13 C6.34 13 5.68 13 5 13 C4.67 14.65 4.34 16.3 4 18 C3.34 17.01 2.68 16.02 2 15 C1.34 15 0.68 15 0 15 C-0.433125 16.2065625 -0.433125 16.2065625 -0.875 17.4375 C-2 20 -2 20 -4 21 C-3.67 19.02 -3.34 17.04 -3 15 C-3.66 15 -4.32 15 -5 15 C-4.51176372 9.14116461 -2.81041988 5.16754623 0 0 Z " fill="#212930" transform="translate(240,338)"/>
<path d="M0 0 C1.8569751 -0.00472824 1.8569751 -0.00472824 3.75146484 -0.009552 C5.11295609 -0.00776222 6.47444701 -0.00571127 7.8359375 -0.00341797 C9.22216814 -0.00409106 10.60839867 -0.00506113 11.99462891 -0.00631714 C14.90333172 -0.00779387 17.81200387 -0.00564037 20.72070312 -0.00097656 C24.45690348 0.00472073 28.19303202 0.00144159 31.92922974 -0.00454903 C34.79273016 -0.00815532 37.65621343 -0.00701574 40.51971436 -0.00442123 C41.89768482 -0.00375215 43.27565682 -0.00457973 44.65362549 -0.00690079 C46.57637504 -0.00942839 48.49913002 -0.0048957 50.421875 0 C52.06615479 0.00119339 52.06615479 0.00119339 53.74365234 0.00241089 C56.2109375 0.12939453 56.2109375 0.12939453 57.2109375 1.12939453 C57.4609375 4.06689453 57.4609375 4.06689453 57.2109375 7.12939453 C53.76338813 9.42776078 52.45618812 9.38628329 48.39428711 9.40405273 C47.19972397 9.41358475 46.00516083 9.42311676 44.7743988 9.43293762 C43.48373001 9.43202621 42.19306122 9.43111481 40.86328125 9.43017578 C39.52714403 9.4340625 38.19100804 9.43839712 36.85487366 9.44316101 C34.05644725 9.45061959 31.25814703 9.45033392 28.4597168 9.44506836 C24.86922793 9.43926362 21.27925323 9.45622994 17.68884945 9.47941303 C14.93080108 9.49412307 12.17287747 9.49502604 9.41479683 9.49190331 C7.44601804 9.49266792 5.47725863 9.50655796 3.50852966 9.52058411 C2.31711868 9.51435532 1.1257077 9.50812653 -0.10180664 9.50170898 C-1.15421036 9.50233841 -2.20661407 9.50296783 -3.29090881 9.50361633 C-4.52749489 9.31837654 -4.52749489 9.31837654 -5.7890625 9.12939453 C-7.7890625 6.12939453 -7.7890625 6.12939453 -7.4765625 3.50439453 C-6.20771856 -0.87888454 -4.27784236 0.00310478 0 0 Z " fill="#20272D" transform="translate(265.7890625,180.87060546875)"/>
<path d="M0 0 C2.01822917 0.06510417 4.03645833 0.13020833 6.0546875 0.1953125 C4.77186586 2.76095577 3.65697406 3.08004683 1.0546875 4.1953125 C-0.2653125 4.5253125 -1.5853125 4.8553125 -2.9453125 5.1953125 C-2.6153125 10.8053125 -2.2853125 16.4153125 -1.9453125 22.1953125 C1.04801489 21.1975367 2.00235065 20.44311 4.0546875 18.1953125 C4.3846875 19.5153125 4.7146875 20.8353125 5.0546875 22.1953125 C9.0146875 22.1953125 12.9746875 22.1953125 17.0546875 22.1953125 C17.0546875 18.2353125 17.0546875 14.2753125 17.0546875 10.1953125 C17.7146875 10.1953125 18.3746875 10.1953125 19.0546875 10.1953125 C19.0546875 10.8553125 19.0546875 11.5153125 19.0546875 12.1953125 C22.02334259 9.65075099 23.4166626 6.70536585 25.0546875 3.1953125 C25.3846875 3.1953125 25.7146875 3.1953125 26.0546875 3.1953125 C26.11252592 7.48692297 26.1482287 11.77843395 26.1796875 16.0703125 C26.19644531 17.29363281 26.21320313 18.51695312 26.23046875 19.77734375 C26.23691406 20.94394531 26.24335938 22.11054688 26.25 23.3125 C26.26047363 24.39128418 26.27094727 25.47006836 26.28173828 26.58154297 C26.0546875 29.1953125 26.0546875 29.1953125 24.0546875 31.1953125 C21.47265625 31.43823242 21.47265625 31.43823242 18.2421875 31.42578125 C17.08460938 31.42384766 15.92703125 31.42191406 14.734375 31.41992188 C13.52007812 31.40767578 12.30578125 31.39542969 11.0546875 31.3828125 C9.84039062 31.38216797 8.62609375 31.38152344 7.375 31.38085938 C-1.66481826 31.33555962 -1.66481826 31.33555962 -3.9453125 30.1953125 C-3.99470912 26.24434272 -4.03103005 22.2934922 -4.05517578 18.34228516 C-4.07019357 16.3361989 -4.09560231 14.33019926 -4.12109375 12.32421875 C-4.13076172 10.43896484 -4.13076172 10.43896484 -4.140625 8.515625 C-4.15109863 7.35305176 -4.16157227 6.19047852 -4.17236328 4.99267578 C-3.91035427 1.76461206 -3.4077885 0.34214744 0 0 Z " fill="#1C2328" transform="translate(216.9453125,201.8046875)"/>
<path d="M0 0 C1.03688965 0.01047363 2.0737793 0.02094727 3.14208984 0.03173828 C4.26357422 0.03818359 5.38505859 0.04462891 6.54052734 0.05126953 C7.71615234 0.06802734 8.89177734 0.08478516 10.10302734 0.10205078 C11.87806641 0.11558594 11.87806641 0.11558594 13.68896484 0.12939453 C16.61885257 0.15302266 19.54834075 0.18596564 22.47802734 0.22705078 C22.47802734 0.55705078 22.47802734 0.88705078 22.47802734 1.22705078 C19.83802734 1.22705078 17.19802734 1.22705078 14.47802734 1.22705078 C14.47802734 1.88705078 14.47802734 2.54705078 14.47802734 3.22705078 C11.83802734 3.55705078 9.19802734 3.88705078 6.47802734 4.22705078 C6.47802734 5.54705078 6.47802734 6.86705078 6.47802734 8.22705078 C5.48802734 8.72205078 5.48802734 8.72205078 4.47802734 9.22705078 C4.47802734 13.51705078 4.47802734 17.80705078 4.47802734 22.22705078 C8.43802734 22.22705078 12.39802734 22.22705078 16.47802734 22.22705078 C16.47802734 23.21705078 16.47802734 24.20705078 16.47802734 25.22705078 C17.13802734 26.21705078 17.79802734 27.20705078 18.47802734 28.22705078 C17.81802734 28.55705078 17.15802734 28.88705078 16.47802734 29.22705078 C18.45802734 29.55705078 20.43802734 29.88705078 22.47802734 30.22705078 C22.47802734 30.55705078 22.47802734 30.88705078 22.47802734 31.22705078 C13.89802734 31.22705078 5.31802734 31.22705078 -3.52197266 31.22705078 C-5.75336421 26.76426768 -4.70696964 20.62794746 -4.70947266 15.72705078 C-4.72171875 14.46505859 -4.73396484 13.20306641 -4.74658203 11.90283203 C-4.74851563 10.70013672 -4.75044922 9.49744141 -4.75244141 8.25830078 C-4.75655029 7.15035156 -4.76065918 6.04240234 -4.76489258 4.90087891 C-4.4372734 1.29476309 -3.63522146 0.3272755 0 0 Z " fill="#1C232A" transform="translate(217.52197265625,242.77294921875)"/>
<path d="M0 0 C1.25554687 -0.00128906 2.51109375 -0.00257813 3.8046875 -0.00390625 C4.46178711 -0.00181152 5.11888672 0.0002832 5.79589844 0.00244141 C7.80411335 0.00779016 9.81210459 0.00249559 11.8203125 -0.00390625 C13.07585937 -0.00261719 14.33140625 -0.00132812 15.625 0 C16.78644531 0.00112793 17.94789063 0.00225586 19.14453125 0.00341797 C21.8125 0.1328125 21.8125 0.1328125 22.8125 1.1328125 C22.90017112 3.20543326 22.91945873 5.28101544 22.91015625 7.35546875 C22.90693359 8.61552734 22.90371094 9.87558594 22.90039062 11.17382812 C22.89203403 12.51432359 22.88356907 13.85481838 22.875 15.1953125 C22.8699866 16.53971192 22.86542342 17.8841131 22.86132812 19.22851562 C22.84949488 22.52999191 22.83300971 25.83138053 22.8125 29.1328125 C22.1525 29.4628125 21.4925 29.7928125 20.8125 30.1328125 C20.4825 27.8228125 20.1525 25.5128125 19.8125 23.1328125 C17.8325 22.8028125 15.8525 22.4728125 13.8125 22.1328125 C13.8125 17.8428125 13.8125 13.5528125 13.8125 9.1328125 C12.77609375 9.205 11.7396875 9.2771875 10.671875 9.3515625 C9.3020882 9.44538351 7.93229626 9.53912958 6.5625 9.6328125 C5.88058594 9.68050781 5.19867188 9.72820312 4.49609375 9.77734375 C1.25518497 9.99759969 -1.9368366 10.1328125 -5.1875 10.1328125 C-5.5175 16.0728125 -5.8475 22.0128125 -6.1875 28.1328125 C-6.5175 28.1328125 -6.8475 28.1328125 -7.1875 28.1328125 C-7.21636338 23.65365922 -7.23425187 19.17452959 -7.25 14.6953125 C-7.25837891 13.41591797 -7.26675781 12.13652344 -7.27539062 10.81835938 C-7.27861328 9.60341797 -7.28183594 8.38847656 -7.28515625 7.13671875 C-7.29039307 6.01080322 -7.29562988 4.8848877 -7.30102539 3.72485352 C-7.08582804 -1.18858783 -4.29306662 0.00416918 0 0 Z " fill="#1C222A" transform="translate(220.1875,160.8671875)"/>
<path d="M0 0 C3.0625 -0.25 3.0625 -0.25 6 0 C7 1 7 1 7.11352539 3.13305664 C7.10828857 4.04949951 7.10305176 4.96594238 7.09765625 5.91015625 C7.09443359 6.89951172 7.09121094 7.88886719 7.08789062 8.90820312 C7.07951172 9.94912109 7.07113281 10.99003906 7.0625 12.0625 C7.05798828 13.10728516 7.05347656 14.15207031 7.04882812 15.22851562 C7.03699913 17.8190666 7.02051689 20.40950559 7 23 C5.35 23 3.7 23 2 23 C1.505 16.565 1.505 16.565 1 10 C-0.32 14.29 -1.64 18.58 -3 23 C-4.32 23 -5.64 23 -7 23 C-8.32 19.04 -9.64 15.08 -11 11 C-11.33 14.96 -11.66 18.92 -12 23 C-13.65 22.67 -15.3 22.34 -17 22 C-17 15.07 -17 8.14 -17 1 C-14.36 1 -11.72 1 -9 1 C-8.01 4.96 -7.02 8.92 -6 13 C-5.34 13 -4.68 13 -4 13 C-3.87882813 12.31292969 -3.75765625 11.62585938 -3.6328125 10.91796875 C-3.46523437 10.01691406 -3.29765625 9.11585938 -3.125 8.1875 C-2.96257812 7.29417969 -2.80015625 6.40085937 -2.6328125 5.48046875 C-2 3 -2 3 0 0 Z " fill="#282C31" transform="translate(196,397)"/>
<path d="M0 0 C0.83961777 0.00718552 1.67923553 0.01437103 2.54429626 0.02177429 C3.83496254 0.02246162 3.83496254 0.02246162 5.15170288 0.02316284 C6.97162758 0.02618599 8.79154968 0.03407416 10.61143494 0.0464325 C13.40750726 0.06469157 16.20324868 0.0669422 18.99937439 0.06669617 C20.76435123 0.07161114 22.52932581 0.07743937 24.29429626 0.08427429 C25.13593826 0.08538712 25.97758026 0.08649994 26.84472656 0.08764648 C32.73684296 0.13619599 32.73684296 0.13619599 33.85289001 1.25224304 C34.04039001 4.18974304 34.04039001 4.18974304 33.85289001 7.25224304 C31.2498311 9.85530196 29.43010462 9.50049282 25.88389587 9.53013611 C25.06928894 9.52608765 24.25468201 9.52203918 23.41539001 9.51786804 C22.57951355 9.51978149 21.74363708 9.52169495 20.88243103 9.52366638 C19.1137919 9.5250284 17.34514279 9.5213308 15.57652283 9.51298523 C12.86373008 9.5022858 10.15159958 9.5128798 7.43882751 9.52568054 C5.72268021 9.52435895 4.00653333 9.52179656 2.29039001 9.51786804 C1.06847961 9.52394073 1.06847961 9.52394073 -0.17811584 9.53013611 C-5.9171907 9.48216232 -5.9171907 9.48216232 -8.14710999 7.25224304 C-8.39710999 4.75224304 -8.39710999 4.75224304 -8.14710999 2.25224304 C-5.50689459 -0.38797236 -3.59218059 0.01421582 0 0 Z " fill="#161B21" transform="translate(266.14710998535156,162.7477569580078)"/>
<path d="M0 0 C2.413125 -0.04125 4.82625 -0.0825 7.3125 -0.125 C8.06829346 -0.14320801 8.82408691 -0.16141602 9.6027832 -0.18017578 C13.31447871 -0.21099473 14.83533664 -0.10977558 18 2 C18.31290959 5.59846026 17.86606717 8.53573133 17 12 C17.33 12.66 17.66 13.32 18 14 C18.13415472 16.6723621 18.04318541 19.32250488 18 22 C16.35 21.67 14.7 21.34 13 21 C12.67 18.69 12.34 16.38 12 14 C9.69 13.67 7.38 13.34 5 13 C5 15.97 5 18.94 5 22 C3.35 22 1.7 22 0 22 C0 14.74 0 7.48 0 0 Z " fill="#2F3139" transform="translate(356,398)"/>
<path d="M0 0 C1.98 0 3.96 0 6 0 C7.8984375 2.1875 7.8984375 2.1875 9.375 5 C9.87773437 5.928125 10.38046875 6.85625 10.8984375 7.8125 C11.26195312 8.534375 11.62546875 9.25625 12 10 C12.33 6.7 12.66 3.4 13 0 C14.65 0 16.3 0 18 0 C18 7.26 18 14.52 18 22 C16.35 22 14.7 22 13 22 C11.234375 20.1015625 11.234375 20.1015625 9.75 17.625 C9.24984375 16.81289063 8.7496875 16.00078125 8.234375 15.1640625 C7.45391143 13.79578143 6.70445957 12.40891915 6 11 C5.67 14.63 5.34 18.26 5 22 C3.35 22 1.7 22 0 22 C0 14.74 0 7.48 0 0 Z " fill="#30343B" transform="translate(243,398)"/>
<path d="M0 0 C2.31 0 4.62 0 7 0 C8.17780436 2.91229133 9.34025075 5.83047678 10.5 8.75 C10.83386719 9.575 11.16773438 10.4 11.51171875 11.25 C11.82753906 12.04921875 12.14335937 12.8484375 12.46875 13.671875 C12.90864258 14.77160645 12.90864258 14.77160645 13.35742188 15.89355469 C14 18 14 18 14 22 C12.35 22 10.7 22 9 22 C8.67 20.35 8.34 18.7 8 17 C3.94914321 17.24631557 3.94914321 17.24631557 0 18 C-1.5899433 19.92064793 -1.5899433 19.92064793 -2 22 C-3.65 22 -5.3 22 -7 22 C-6.44147333 16.5632024 -5.06042383 12.0816633 -2.9375 7.0625 C-2.65583984 6.37865234 -2.37417969 5.69480469 -2.08398438 4.99023438 C-1.3964595 3.32386054 -0.69923825 1.66149273 0 0 Z " fill="#2C2E32" transform="translate(278,398)"/>
<path d="M0 0 C2.51076726 1.42532639 3.96226338 2.86286159 6 5 C6 5.99 6 6.98 6 8 C4.35 8 2.7 8 1 8 C0.67 7.34 0.34 6.68 0 6 C-1.99954746 5.95745644 -4.00041636 5.95919217 -6 6 C-7.28612676 7.05978933 -7.28612676 7.05978933 -7.09765625 9.50390625 C-7.08605469 10.51324219 -7.07445312 11.52257812 -7.0625 12.5625 C-7.05347656 13.57441406 -7.04445313 14.58632813 -7.03515625 15.62890625 C-7.02355469 16.41136719 -7.01195312 17.19382812 -7 18 C-4.36 18 -1.72 18 1 18 C1 17.01 1 16.02 1 15 C-0.32 15 -1.64 15 -3 15 C-3 13.68 -3 12.36 -3 11 C-0.03 11 2.94 11 6 11 C6.36794425 18.4815331 6.36794425 18.4815331 4.625 20.9375 C0.61496479 23.5594461 -3.31096179 23.88273776 -8 23 C-10.80237413 20.86704545 -12.42926677 18.14146646 -14 15 C-14.54802111 9.30058046 -13.60961802 6.43467357 -10 2 C-6.23124125 -0.51250583 -4.46849866 -0.53016086 0 0 Z " fill="#2E3137" transform="translate(314,397)"/>
<path d="M0 0 C2.31 0 4.62 0 7 0 C7.79441072 1.87383903 8.58539974 3.74912886 9.375 5.625 C9.81585938 6.66914063 10.25671875 7.71328125 10.7109375 8.7890625 C12.55704575 13.38755032 14 17.00663539 14 22 C12.35 22 10.7 22 9 22 C8.67 20.35 8.34 18.7 8 17 C3.94914321 17.24631557 3.94914321 17.24631557 0 18 C-1.5899433 19.92064793 -1.5899433 19.92064793 -2 22 C-3.65 22 -5.3 22 -7 22 C-4.84071065 14.60606981 -2.4695482 7.29582259 0 0 Z " fill="#1F2429" transform="translate(219,398)"/>
<path d="M0 0 C5.28 0 10.56 0 16 0 C16 1.32 16 2.64 16 4 C12.37 4 8.74 4 5 4 C5 5.32 5 6.64 5 8 C7.97 8 10.94 8 14 8 C14.33 9.65 14.66 11.3 15 13 C11.7 13 8.4 13 5 13 C5 14.32 5 15.64 5 17 C8.63 17 12.26 17 16 17 C16.33 18.65 16.66 20.3 17 22 C11.39 22 5.78 22 0 22 C0 14.74 0 7.48 0 0 Z " fill="#3F4448" transform="translate(330,398)"/>
<path d="M0 0 C3.05024864 -0.28775931 5.96180075 -0.45410807 9 0 C10.9375 2.4375 10.9375 2.4375 12 5 C14.64458379 6.32229189 16.67761301 6.09677194 19.625 6.0625 C20.62789063 6.05347656 21.63078125 6.04445313 22.6640625 6.03515625 C23.82035156 6.01775391 23.82035156 6.01775391 25 6 C25.33 6.99 25.66 7.98 26 9 C25.01 9.33 24.02 9.66 23 10 C23 9.34 23 8.68 23 8 C20.36 8.66 17.72 9.32 15 10 C17.475 10.495 17.475 10.495 20 11 C19.360625 11.268125 18.72125 11.53625 18.0625 11.8125 C15.66868314 12.88667752 15.66868314 12.88667752 15 16 C8.5314077 15.38394359 4.69767079 13.04591095 0.5625 8.0625 C-1 5 -1 5 -0.75 2.125 C-0.5025 1.42375 -0.255 0.7225 0 0 Z " fill="#1E2326" transform="translate(281,370)"/>
<path d="M0 0 C0.99 0.33 1.98 0.66 3 1 C2.67 1.33 2.34 1.66 2 2 C5.96 2 9.92 2 14 2 C14 2.66 14 3.32 14 4 C38.75 4 63.5 4 89 4 C88.67 4.66 88.34 5.32 88 6 C86.51994728 6.00879936 86.51994728 6.00879936 85.00999451 6.01777649 C75.69669709 6.07506907 66.3836317 6.14786481 57.07057095 6.23571491 C52.28298575 6.2803813 47.49548492 6.31964566 42.70776367 6.34643555 C38.08456716 6.37250574 33.46169593 6.41293444 28.83870125 6.46318626 C27.07777017 6.47982986 25.31678285 6.49135973 23.55578423 6.49761391 C21.08298779 6.50728241 18.61101888 6.53537362 16.13842773 6.56762695 C15.41553558 6.56619186 14.69264343 6.56475677 13.94784546 6.5632782 C8.88926101 6.6561743 5.45733069 7.80515553 1 10 C0.34 9.34 -0.32 8.68 -1 8 C-1.99 7.67 -2.98 7.34 -4 7 C-4 6.67 -4 6.34 -4 6 C-4.66 5.67 -5.32 5.34 -6 5 C-1.60546875 0.99609375 -1.60546875 0.99609375 0 0 Z " fill="#1C2227" transform="translate(202,136)"/>
<path d="M0 0 C1.74385986 0.07855225 1.74385986 0.07855225 3.52294922 0.15869141 C4.77978516 0.21025391 6.03662109 0.26181641 7.33154297 0.31494141 C8.66358507 0.37982316 9.99561621 0.44493025 11.32763672 0.51025391 C12.66743966 0.56849214 14.00728359 0.62579546 15.34716797 0.68212891 C18.63284404 0.82395665 21.91779608 0.97540303 25.20263672 1.13525391 C25.53263672 2.12525391 25.86263672 3.11525391 26.20263672 4.13525391 C24.3907179 5.94717273 21.47912373 5.60760521 19.01513672 5.85400391 C17.18588342 5.95523434 17.18588342 5.95523434 16.20263672 7.13525391 C13.7607157 7.34733872 11.33675094 7.51166441 8.89013672 7.63525391 C3.81679676 7.84054203 3.81679676 7.84054203 -1.15283203 8.79150391 C-1.69552734 8.90494141 -2.23822266 9.01837891 -2.79736328 9.13525391 C-4.79736328 7.13525391 -4.79736328 7.13525391 -5.04736328 4.63525391 C-4.67663082 0.92792929 -3.68550871 0.17819618 0 0 Z " fill="#20282F" transform="translate(262.79736328125,162.86474609375)"/>
<path d="M0 0 C0.33 0.99 0.66 1.98 1 3 C3.50447516 4.21869929 3.50447516 4.21869929 6 5 C2.64361774 9.24483639 -0.67462104 12.73193589 -5 16 C-5.66 16 -6.32 16 -7 16 C-7 15.34 -7 14.68 -7 14 C-10.3 14.33 -13.6 14.66 -17 15 C-4.8125 0 -4.8125 0 0 0 Z " fill="#1C252A" transform="translate(340,228)"/>
<path d="M0 0 C3.22603412 1.9679511 4.97918198 3.63729454 6.375 7.25 C6.5979701 9.9712487 6.51431641 12.5101106 6.375 15.25 C6.045 15.25 5.715 15.25 5.375 15.25 C5.375 12.94 5.375 10.63 5.375 8.25 C3.04285852 7.04371992 0.87857861 6.0845262 -1.625 5.25 C-1.625 5.91 -1.625 6.57 -1.625 7.25 C-2.285 7.25 -2.945 7.25 -3.625 7.25 C-3.955 7.91 -4.285 8.57 -4.625 9.25 C-9.00832057 8.42812739 -13.30440177 7.34845718 -17.625 6.25 C-16.985625 6.023125 -16.34625 5.79625 -15.6875 5.5625 C-15.006875 5.129375 -14.32625 4.69625 -13.625 4.25 C-13.46 3.425 -13.295 2.6 -13.125 1.75 C-12.625 -0.75 -12.625 -0.75 -10.875 -2.125 C-6.72424237 -3.27798823 -3.68784385 -1.90991492 0 0 Z " fill="#283037" transform="translate(313.625,359.75)"/>
<path d="M0 0 C2.27057377 -0.05398987 4.54151288 -0.09278742 6.8125 -0.125 C8.07707031 -0.14820313 9.34164063 -0.17140625 10.64453125 -0.1953125 C14 0 14 0 17 2 C17.31290959 5.59846026 16.86606717 8.53573133 16 12 C16.33 12.66 16.66 13.32 17 14 C17.13415472 16.6723621 17.04318541 19.32250488 17 22 C15.35 21.67 13.7 21.34 12 21 C11.67 18.69 11.34 16.38 11 14 C9.865625 13.87625 8.73125 13.7525 7.5625 13.625 C5.7990625 13.315625 5.7990625 13.315625 4 13 C2.5216774 10.04335481 2.93967217 7.25770263 3 4 C3.33 4 3.66 4 4 4 C4 5.98 4 7.96 4 10 C6.64 9.67 9.28 9.34 12 9 C11.34 6.69 10.68 4.38 10 2 C6.7 1.67 3.4 1.34 0 1 C0 0.67 0 0.34 0 0 Z " fill="#1A1F24" transform="translate(357,398)"/>
<path d="M0 0 C3.96 0 7.92 0 12 0 C12 3.96 12 7.92 12 12 C8.04 12 4.08 12 0 12 C0 8.04 0 4.08 0 0 Z " fill="#ECF0F1" transform="translate(222,170)"/>
<path d="M0 0 C1.14662109 -0.01836914 1.14662109 -0.01836914 2.31640625 -0.03710938 C6.58722392 -0.04817367 9.85360395 0.2159236 13.75 2.1875 C11.75 4.1875 11.75 4.1875 9.125 4.3125 C8.34125 4.27125 7.5575 4.23 6.75 4.1875 C6.42 5.5075 6.09 6.8275 5.75 8.1875 C3.45858714 8.24134521 1.16681812 8.28022087 -1.125 8.3125 C-3.03925781 8.34730469 -3.03925781 8.34730469 -4.9921875 8.3828125 C-8.25 8.1875 -8.25 8.1875 -10.25 6.1875 C-9.37549145 -0.98347009 -6.44326422 0.00532501 0 0 Z " fill="#1F262D" transform="translate(316.25,133.8125)"/>
<path d="M0 0 C-0.84950957 5.06352412 -4.12044183 7.87662689 -8 11 C-10.94610944 12.00435549 -12.8943304 12 -16 12 C-16.12375 11.360625 -16.2475 10.72125 -16.375 10.0625 C-16.58125 9.381875 -16.7875 8.70125 -17 8 C-17.66 7.67 -18.32 7.34 -19 7 C-14.41049954 -1.21499626 -8.7694181 -0.81969338 0 0 Z " fill="#242B33" transform="translate(375,338)"/>
<path d="M0 0 C3.4951604 1.43358666 6.83273942 2.92971931 10 5 C11.25 8.1875 11.25 8.1875 11 11 C10.34 11.66 9.68 12.32 9 13 C3.0520662 12.75722719 -1.69931781 10.58423281 -7 8 C-6.67 7.01 -6.34 6.02 -6 5 C-5.34 5 -4.68 5 -4 5 C-4 4.34 -4 3.68 -4 3 C-3.01 2.67 -2.02 2.34 -1 2 C-0.67 1.34 -0.34 0.68 0 0 Z " fill="#2A2E34" transform="translate(321,204)"/>
<path d="M0 0 C3.63 0 7.26 0 11 0 C11 3.96 11 7.92 11 12 C7.37 12 3.74 12 0 12 C0 8.04 0 4.08 0 0 Z " fill="#EFF3F5" transform="translate(222,212)"/>
<path d="M0 0 C5.28 0.33 10.56 0.66 16 1 C16 1.66 16 2.32 16 3 C16.66 3 17.32 3 18 3 C17.1875 5.9375 17.1875 5.9375 16 9 C15.01 9.33 14.02 9.66 13 10 C13 9.34 13 8.68 13 8 C12.34 8 11.68 8 11 8 C11 11.96 11 15.92 11 20 C10.67 20 10.34 20 10 20 C10 16.04 10 12.08 10 8 C6.37 8 2.74 8 -1 8 C-1 7.67 -1 7.34 -1 7 C2.3 6.67 5.6 6.34 9 6 C6.03 5.67 3.06 5.34 0 5 C0 3.35 0 1.7 0 0 Z M-3 4 C-1.515 4.99 -1.515 4.99 0 6 C-0.99 6 -1.98 6 -3 6 C-3 5.34 -3 4.68 -3 4 Z " fill="#313943" transform="translate(223,204)"/>
<path d="M0 0 C3.67173807 0.85721511 4.98449688 3.43377656 7.0078125 6.46875 C5.6878125 7.45875 4.3678125 8.44875 3.0078125 9.46875 C3.3378125 10.12875 3.6678125 10.78875 4.0078125 11.46875 C-5.32462718 10.67786528 -5.32462718 10.67786528 -8.9921875 7.46875 C-9.4921875 4.90625 -9.4921875 4.90625 -8.9921875 2.46875 C-5.81379594 0.34982229 -3.79330023 -0.05598967 0 0 Z " fill="#EDF0F2" transform="translate(301.9921875,345.53125)"/>
<path d="M0 0 C3.63 0 7.26 0 11 0 C11 3.63 11 7.26 11 11 C7.37 11 3.74 11 0 11 C0 7.37 0 3.74 0 0 Z " fill="#F6F9FB" transform="translate(222,253)"/>
<path d="M0 0 C2.97 0 5.94 0 9 0 C9.36794425 7.4815331 9.36794425 7.4815331 7.625 9.9375 C3.60152067 12.56823648 -0.2920186 12.64389799 -5 12 C-7.5625 10 -7.5625 10 -9 8 C-8.67 7.34 -8.34 6.68 -8 6 C-4.04 6.33 -0.08 6.66 4 7 C4 6.01 4 5.02 4 4 C2.68 4 1.36 4 0 4 C0 2.68 0 1.36 0 0 Z " fill="#2A2E35" transform="translate(311,408)"/>
<path d="M0 0 C2.47378124 2.47378124 3.03138231 4.56174345 4.125 7.875 C4.47820312 8.92429687 4.83140625 9.97359375 5.1953125 11.0546875 C6 14 6 14 6 18 C4.35 18 2.7 18 1 18 C0.608125 16.865625 0.21625 15.73125 -0.1875 14.5625 C-1.58610882 10.79660949 -1.58610882 10.79660949 -4.6875 10.0625 C-5.450625 10.041875 -6.21375 10.02125 -7 10 C-6.03108808 4.5388601 -6.03108808 4.5388601 -5 2 C-2.375 0.5 -2.375 0.5 0 0 Z " fill="#2B3138" transform="translate(227,402)"/>
<path d="M0 0 C0.94875 0.04125 1.8975 0.0825 2.875 0.125 C3.205 1.115 3.535 2.105 3.875 3.125 C5.525 3.125 7.175 3.125 8.875 3.125 C8.875 4.115 8.875 5.105 8.875 6.125 C5.905 6.125 2.935 6.125 -0.125 6.125 C-0.125 7.445 -0.125 8.765 -0.125 10.125 C1.195 10.125 2.515 10.125 3.875 10.125 C3.875 11.115 3.875 12.105 3.875 13.125 C1.0625 13.8125 1.0625 13.8125 -2.125 14.125 C-3.8046875 12.9296875 -3.8046875 12.9296875 -5.125 11.125 C-5.48828125 8.93359375 -5.48828125 8.93359375 -5.4375 6.5625 C-5.43363281 5.77746094 -5.42976563 4.99242187 -5.42578125 4.18359375 C-4.89083775 0.52235705 -3.5370215 0.14148086 0 0 Z " fill="#EDEFF3" transform="translate(311.125,401.875)"/>
<path d="M0 0 C3 0.125 3 0.125 4 1.125 C4.12524459 2.91337622 4.17573676 4.70728214 4.1875 6.5 C4.20167969 7.47710937 4.21585937 8.45421875 4.23046875 9.4609375 C4 12.125 4 12.125 2 15.125 C1.67 14.465 1.34 13.805 1 13.125 C0.195625 13.29 -0.60875 13.455 -1.4375 13.625 C-4 14.125 -4 14.125 -5 14.125 C-4.85970581 11.9787974 -4.71261836 9.83303782 -4.5625 7.6875 C-4.48128906 6.49253906 -4.40007812 5.29757813 -4.31640625 4.06640625 C-3.89644822 0.16235201 -3.89644822 0.16235201 0 0 Z " fill="#1A2027" transform="translate(346,245.875)"/>
<path d="M0 0 C2.64 0 5.28 0 8 0 C8.33 1.65 8.66 3.3 9 5 C7.68 4.34 6.36 3.68 5 3 C5 9.27 5 15.54 5 22 C3.35 21.67 1.7 21.34 0 21 C0 14.07 0 7.14 0 0 Z " fill="#37393F" transform="translate(179,398)"/>
<path d="M0 0 C0.66 0 1.32 0 2 0 C2.67413211 1.91405367 3.3390332 3.83136026 4 5.75 C4.37125 6.81734375 4.7425 7.8846875 5.125 8.984375 C6 12 6 12 6 16 C2.37 16 -1.26 16 -5 16 C-3.40615011 10.63886855 -1.8106711 5.29273092 0 0 Z " fill="#E2E5E7" transform="translate(245,351)"/>
<path d="M0 0 C2.31 0 4.62 0 7 0 C7.66 2.31 8.32 4.62 9 7 C8.01 7.99 7.02 8.98 6 10 C5.01 9.34 4.02 8.68 3 8 C2.34 9.98 1.68 11.96 1 14 C0.01 14 -0.98 14 -2 14 C-3.32854177 8.0819503 -2.66464729 5.22270869 0 0 Z " fill="#292C33" transform="translate(278,398)"/>
<path d="M0 0 C5.28 0 10.56 0 16 0 C16 1.32 16 2.64 16 4 C12.37 4 8.74 4 5 4 C4.67 5.65 4.34 7.3 4 9 C3.01 8.67 2.02 8.34 1 8 C1 12.29 1 16.58 1 21 C0.67 21 0.34 21 0 21 C0 14.07 0 7.14 0 0 Z " fill="#131519" transform="translate(330,398)"/>
<path d="M0 0 C3.6486941 2.33890647 4.85294371 3.38026276 5.875 7.6875 C5.91625 8.780625 5.9575 9.87375 6 11 C5 12 5 12 1.1875 12.375 C-2.34858091 12.34960624 -2.77684121 12.21200085 -5.5 9.625 C-7 7 -7 7 -7 5 C-5.5459375 4.5978125 -5.5459375 4.5978125 -4.0625 4.1875 C-3.051875 3.795625 -2.04125 3.40375 -1 3 C-0.67 2.01 -0.34 1.02 0 0 Z " fill="#242732" transform="translate(312,341)"/>
<path d="M0 0 C3.96 0 7.92 0 12 0 C12.33 0.99 12.66 1.98 13 3 C12.01 3.33 11.02 3.66 10 4 C10 3.34 10 2.68 10 2 C7.36 2.66 4.72 3.32 2 4 C3.65 4.33 5.3 4.66 7 5 C6.360625 5.268125 5.72125 5.53625 5.0625 5.8125 C2.66868314 6.88667752 2.66868314 6.88667752 2 10 C-2.99464924 9.52431912 -6.02785403 8.04839109 -10 5 C-10.33 4.34 -10.66 3.68 -11 3 C-7.01803543 1.94595055 -4.01804691 2.15901344 0 3 C0 2.01 0 1.02 0 0 Z " fill="#2E343A" transform="translate(294,376)"/>
<path d="M0 0 C0.66 0 1.32 0 2 0 C2.66 1.32 3.32 2.64 4 4 C5.98491642 3.73323796 5.98491642 3.73323796 8 3 C8.33 2.01 8.66 1.02 9 0 C9.8125 1.625 9.8125 1.625 10 4 C7.6875 7.25 7.6875 7.25 5 10 C4.34 10 3.68 10 3 10 C3.66 11.65 4.32 13.3 5 15 C3.35 15.66 1.7 16.32 0 17 C0 13.79604584 0.74335022 11.90600261 2 9 C1.01 9.33 0.02 9.66 -1 10 C-0.67 9.01 -0.34 8.02 0 7 C-0.99 6.34 -1.98 5.68 -3 5 C-1.125 1.125 -1.125 1.125 0 0 Z " fill="#1B2028" transform="translate(356,346)"/>
<path d="M0 0 C2.5654594 2.5654594 2.54046087 4.47686668 3 8 C1.02 8.33 -0.96 8.66 -3 9 C-3.144375 9.78375 -3.28875 10.5675 -3.4375 11.375 C-4 14 -4 14 -5 16 C-6.65 16 -8.3 16 -10 16 C-9.49202991 11.6822542 -8.80317221 7.96697886 -7 4 C-6.34 5.32 -5.68 6.64 -5 8 C-4.01 8 -3.02 8 -2 8 C-1.7834375 6.576875 -1.7834375 6.576875 -1.5625 5.125 C-1 2 -1 2 0 0 Z " fill="#393D41" transform="translate(281,404)"/>
<path d="M0 0 C3.37569705 1.39705814 4.86670588 2.83498319 6.796875 5.9140625 C7.28027344 6.67460937 7.76367188 7.43515625 8.26171875 8.21875 C8.99841797 9.40984375 8.99841797 9.40984375 9.75 10.625 C10.25660156 11.42679687 10.76320313 12.22859375 11.28515625 13.0546875 C12.53222233 15.0311696 13.77001627 17.0128591 15 19 C14.01 19.33 13.02 19.66 12 20 C11.34 19.34 10.68 18.68 10 18 C9.34 18.33 8.68 18.66 8 19 C8.0928125 17.6078125 8.0928125 17.6078125 8.1875 16.1875 C8.30894264 13.01604897 8.30894264 13.01604897 6.5 11.125 C6.005 10.75375 5.51 10.3825 5 10 C4.34 10.66 3.68 11.32 3 12 C3 11.01 3 10.02 3 9 C2.34 9 1.68 9 1 9 C1.33 8.01 1.66 7.02 2 6 C0.94729537 4.84188612 0.94729537 4.84188612 -1 4 C-0.67 2.68 -0.34 1.36 0 0 Z " fill="#272F33" transform="translate(359,360)"/>
<path d="M0 0 C-0.33 1.32 -0.66 2.64 -1 4 C0.65 4 2.3 4 4 4 C3.67 4.66 3.34 5.32 3 6 C4.65 6.33 6.3 6.66 8 7 C8 7.33 8 7.66 8 8 C0.08 8.495 0.08 8.495 -8 9 C-7.34 8.67 -6.68 8.34 -6 8 C-5.34786708 5.97536745 -5.34786708 5.97536745 -5 4 C-5.639375 3.896875 -6.27875 3.79375 -6.9375 3.6875 C-7.618125 3.460625 -8.29875 3.23375 -9 3 C-9.33 2.01 -9.66 1.02 -10 0 C-6.30581799 -1.231394 -3.7943739 -0.64432764 0 0 Z " fill="#2B333A" transform="translate(298,202)"/>
<path d="M0 0 C2.31 0 4.62 0 7 0 C7 3 7 3 6.4375 5.0625 C5.76986497 7.0674281 5.76986497 7.0674281 7 9 C4.03 9 1.06 9 -2 9 C-1.125 2.25 -1.125 2.25 0 0 Z " fill="#1A2128" transform="translate(226,376)"/>
<path d="M0 0 C0.33 0 0.66 0 1 0 C1 1.98 1 3.96 1 6 C2.98 6 4.96 6 7 6 C8.1577506 9.47325181 8.06866652 12.36067448 8 16 C7.401875 15.835 6.80375 15.67 6.1875 15.5 C3.88655664 14.8885876 3.88655664 14.8885876 1 15 C0.67 15 0.34 15 0 15 C0 10.05 0 5.1 0 0 Z " fill="#2F353D" transform="translate(254,241)"/>
<path d="M0 0 C0.66 0.66 1.32 1.32 2 2 C3.31747324 2.69748583 4.64914193 3.36959957 6 4 C5.34 6.31 4.68 8.62 4 11 C4.66 11.33 5.32 11.66 6 12 C3.69 12 1.38 12 -1 12 C-2.4606285 9.35261084 -3 8.10551666 -3 5 C-2.34 5 -1.68 5 -1 5 C-0.67 3.35 -0.34 1.7 0 0 Z " fill="#242932" transform="translate(259,373)"/>
<path d="M0 0 C1.65 1.65 3.3 3.3 5 5 C4.67 5.99 4.34 6.98 4 8 C3.67 7.34 3.34 6.68 3 6 C2.78918149 9.89459074 2.78918149 9.89459074 4 13 C2 16 2 16 0 17 C0 15.02 0 13.04 0 11 C-0.99 11.33 -1.98 11.66 -3 12 C-3.94721072 9.39517051 -4.30222393 7.69325299 -3.17578125 5.109375 C-2.17063275 3.37417127 -1.0893855 1.68359577 0 0 Z " fill="#282C33" transform="translate(263,220)"/>
<path d="M0 0 C0.99 0.66 1.98 1.32 3 2 C2.175 2.598125 1.35 3.19625 0.5 3.8125 C-0.325 4.534375 -1.15 5.25625 -2 6 C-2 6.99 -2 7.98 -2 9 C-2.50015625 8.84660156 -3.0003125 8.69320312 -3.515625 8.53515625 C-6.90327766 7.80542604 -10.29961519 7.63643523 -13.75 7.4375 C-14.44738281 7.39431641 -15.14476562 7.35113281 -15.86328125 7.30664062 C-17.57531922 7.20110404 -19.28763561 7.1001009 -21 7 C-21 6.67 -21 6.34 -21 6 C-16.71 6 -12.42 6 -8 6 C-8 4.35 -8 2.7 -8 1 C-6.865625 1.020625 -5.73125 1.04125 -4.5625 1.0625 C-1.18424326 1.41577477 -1.18424326 1.41577477 0 0 Z " fill="#32373F" transform="translate(330,136)"/>
<path d="M0 0 C1.32 0 2.64 0 4 0 C4.33 0.99 4.66 1.98 5 3 C3.59921602 4.53547475 2.17879097 6.05305148 0.75 7.5625 C-0.43335938 8.83287109 -0.43335938 8.83287109 -1.640625 10.12890625 C-4 12 -4 12 -6.296875 11.77734375 C-7.13992188 11.39255859 -7.13992188 11.39255859 -8 11 C-8 9.68 -8 8.36 -8 7 C-5.12645755 4.82542733 -3.63563409 4 0 4 C0 2.68 0 1.36 0 0 Z " fill="#242B30" transform="translate(329,242)"/>
<path d="M0 0 C1.65 0 3.3 0 5 0 C3.68 0.33 2.36 0.66 1 1 C1.33 3.31 1.66 5.62 2 8 C2.66 7.67 3.32 7.34 4 7 C4 11.62 4 16.24 4 21 C2.68 21 1.36 21 0 21 C0 14.07 0 7.14 0 0 Z " fill="#16171C" transform="translate(243,398)"/>
<path d="M0 0 C1.32 0 2.64 0 4 0 C4 0.66 4 1.32 4 2 C5.32 2.33 6.64 2.66 8 3 C7.67 3.99 7.34 4.98 7 6 C7 6.99 7 7.98 7 9 C2.545 9.495 2.545 9.495 -2 10 C-1.34 9.01 -0.68 8.02 0 7 C-0.28112064 4.99199544 -0.61067967 2.98985949 -1 1 C-0.67 0.67 -0.34 0.34 0 0 Z " fill="#232B32" transform="translate(216,264)"/>
<path d="M0 0 C1.74385986 0.07855225 1.74385986 0.07855225 3.52294922 0.15869141 C4.77978516 0.21025391 6.03662109 0.26181641 7.33154297 0.31494141 C8.66358507 0.37982316 9.99561621 0.44493025 11.32763672 0.51025391 C12.66743966 0.56849214 14.00728359 0.62579546 15.34716797 0.68212891 C18.63284404 0.82395665 21.91779608 0.97540303 25.20263672 1.13525391 C25.20263672 1.46525391 25.20263672 1.79525391 25.20263672 2.13525391 C12.82763672 2.63025391 12.82763672 2.63025391 0.20263672 3.13525391 C0.53263672 4.12525391 0.86263672 5.11525391 1.20263672 6.13525391 C0.21263672 7.12525391 -0.77736328 8.11525391 -1.79736328 9.13525391 C-2.78736328 8.47525391 -3.77736328 7.81525391 -4.79736328 7.13525391 C-5.10986328 4.63525391 -5.10986328 4.63525391 -4.79736328 2.13525391 C-2.79736328 0.13525391 -2.79736328 0.13525391 0 0 Z " fill="#282F33" transform="translate(262.79736328125,162.86474609375)"/>
<path d="M0 0 C0.886875 0.185625 1.77375 0.37125 2.6875 0.5625 C5.85178811 0.98042484 7.94839642 0.80777742 11 0 C10.690625 0.556875 10.38125 1.11375 10.0625 1.6875 C8.94238179 4.12540433 8.43962636 6.36224186 8 9 C8.99 9.33 9.98 9.66 11 10 C11 10.66 11 11.32 11 12 C10.34 12 9.68 12 9 12 C8.67 12.66 8.34 13.32 8 14 C6.02 10.535 6.02 10.535 4 7 C3.34 7 2.68 7 2 7 C2 6.34 2 5.68 2 5 C3.32 4.34 4.64 3.68 6 3 C4.35 3.33 2.7 3.66 1 4 C0.67 2.68 0.34 1.36 0 0 Z " fill="#262F37" transform="translate(347,358)"/>
<path d="M0 0 C0.78375 0.474375 1.5675 0.94875 2.375 1.4375 C3.88948678 2.33898023 5.4235897 3.21179485 7 4 C7 6.97 7 9.94 7 13 C6.67 12.01 6.34 11.02 6 10 C5.38125 10.185625 4.7625 10.37125 4.125 10.5625 C2 11 2 11 0 10 C0 6.7 0 3.4 0 0 Z " fill="#242B32" transform="translate(255,237)"/>
<path d="M0 0 C1.32 0 2.64 0 4 0 C4 7.26 4 14.52 4 22 C2.35 22 0.7 22 -1 22 C-1.66 20.35 -2.32 18.7 -3 17 C-2.01 17.33 -1.02 17.66 0 18 C0.33 17.01 0.66 16.02 1 15 C1.33 14.67 1.66 14.34 2 14 C2.23481693 11.81707226 2.41363323 9.62796826 2.5625 7.4375 C2.64628906 6.23996094 2.73007812 5.04242188 2.81640625 3.80859375 C2.87699219 2.88175781 2.93757813 1.95492188 3 1 C2.01 0.67 1.02 0.34 0 0 Z " fill="#1D2224" transform="translate(257,398)"/>
<path d="M0 0 C0.66 0.99 1.32 1.98 2 3 C0.02 4.32 -1.96 5.64 -4 7 C-4.45375 6.505 -4.9075 6.01 -5.375 5.5 C-6.87635519 3.77390663 -6.87635519 3.77390663 -9 4 C-9.99 5.485 -9.99 5.485 -11 7 C-11.66 6.67 -12.32 6.34 -13 6 C-12.34 5.01 -11.68 4.02 -11 3 C-11.66 2.67 -12.32 2.34 -13 2 C-8.48894322 -0.25552839 -4.94884301 -0.40564287 0 0 Z " fill="#292F36" transform="translate(280,213)"/>
<path d="M0 0 C4.29 0 8.58 0 13 0 C13 0.33 13 0.66 13 1 C11.865625 1.12375 10.73125 1.2475 9.5625 1.375 C7.7990625 1.684375 7.7990625 1.684375 6 2 C5.67 2.66 5.34 3.32 5 4 C3.66666667 4.66666667 2.33333333 5.33333333 1 6 C0.67 6.66 0.34 7.32 0 8 C-1.32 8 -2.64 8 -4 8 C-4.66 6.35 -5.32 4.7 -6 3 C-4.02 2.67 -2.04 2.34 0 2 C0 1.34 0 0.68 0 0 Z " fill="#191B22" transform="translate(296,290)"/>
<path d="M0 0 C0.66 0.66 1.32 1.32 2 2 C2.66 1.67 3.32 1.34 4 1 C7 2 7 2 8 4 C7.01 4.66 6.02 5.32 5 6 C5.66 6.66 6.32 7.32 7 8 C6.67 8.99 6.34 9.98 6 11 C5.34 11 4.68 11 4 11 C4 10.34 4 9.68 4 9 C2.23024131 7.23513282 2.23024131 7.23513282 0 6 C-0.99 6.33 -1.98 6.66 -3 7 C-2.25 2.25 -2.25 2.25 0 0 Z " fill="#1D232A" transform="translate(286,341)"/>
<path d="M0 0 C1.77007714 -0.08114106 3.54122098 -0.13925505 5.3125 -0.1875 C6.29863281 -0.22230469 7.28476562 -0.25710938 8.30078125 -0.29296875 C11 0 11 0 12.85546875 1.32421875 C14 3 14 3 14 6 C12.35 6 10.7 6 9 6 C8.67 5.34 8.34 4.68 8 4 C5.67843403 3.59270772 3.3431213 3.25561323 1 3 C0.67 2.01 0.34 1.02 0 0 Z " fill="#1B1E24" transform="translate(306,399)"/>
<path d="M0 0 C0.09765625 6.15234375 0.09765625 6.15234375 0 8 C-1 9 -1 9 -3.94140625 9.09765625 C-5.73384766 9.08025391 -5.73384766 9.08025391 -7.5625 9.0625 C-9.35880859 9.04896484 -9.35880859 9.04896484 -11.19140625 9.03515625 C-12.11824219 9.02355469 -13.04507813 9.01195312 -14 9 C-14 8.67 -14 8.34 -14 8 C-11.03 8 -8.06 8 -5 8 C-4.67 7.01 -4.34 6.02 -4 5 C-4.99 4.01 -5.98 3.02 -7 2 C-4 0 -4 0 0 0 Z " fill="#2C3135" transform="translate(215,339)"/>
<path d="M0 0 C2.01822917 0.06510417 4.03645833 0.13020833 6.0546875 0.1953125 C4.77186586 2.76095577 3.65697406 3.08004683 1.0546875 4.1953125 C-0.27499436 4.54292586 -1.60795811 4.87849689 -2.9453125 5.1953125 C-2.9045459 5.78546143 -2.8637793 6.37561035 -2.82177734 6.98364258 C-2.64338047 9.6577539 -2.48166743 12.33262109 -2.3203125 15.0078125 C-2.25585938 15.93658203 -2.19140625 16.86535156 -2.125 17.82226562 C-2.0734375 18.71494141 -2.021875 19.60761719 -1.96875 20.52734375 C-1.91638184 21.34952393 -1.86401367 22.1717041 -1.81005859 23.01879883 C-1.9453125 25.1953125 -1.9453125 25.1953125 -3.9453125 28.1953125 C-4.00315092 23.90370203 -4.0388537 19.61219105 -4.0703125 15.3203125 C-4.08707031 14.09699219 -4.10382813 12.87367188 -4.12109375 11.61328125 C-4.12753906 10.44667969 -4.13398438 9.28007812 -4.140625 8.078125 C-4.15109863 6.99934082 -4.16157227 5.92055664 -4.17236328 4.80908203 C-3.89963767 1.66951173 -3.28812776 0.33013331 0 0 Z " fill="#151820" transform="translate(216.9453125,201.8046875)"/>
<path d="M0 0 C4.29 0 8.58 0 13 0 C11.92643531 4.29425875 11.4915227 4.74740471 8 7 C7.67 5.68 7.34 4.36 7 3 C6.67 3.66 6.34 4.32 6 5 C1.38297872 2.76595745 1.38297872 2.76595745 0 0 Z " fill="#292E33" transform="translate(362,338)"/>
<path d="M0 0 C0.66 0.33 1.32 0.66 2 1 C4.09821215 0.60061233 4.09821215 0.60061233 6 0 C6.625 2.875 6.625 2.875 7 6 C6.34 6.66 5.68 7.32 5 8 C4.67 7.01 4.34 6.02 4 5 C3.34 5 2.68 5 2 5 C1.566875 6.2065625 1.566875 6.2065625 1.125 7.4375 C0 10 0 10 -2 11 C-1.67 9.02 -1.34 7.04 -1 5 C-1.66 5 -2.32 5 -3 5 C-1.125 1.125 -1.125 1.125 0 0 Z " fill="#1C242C" transform="translate(238,348)"/>
<path d="M0 0 C7.92 0 15.84 0 24 0 C24 0.33 24 0.66 24 1 C21.36 1 18.72 1 16 1 C16 1.66 16 2.32 16 3 C10.72 2.67 5.44 2.34 0 2 C0 1.34 0 0.68 0 0 Z " fill="#141A21" transform="translate(216,243)"/>
<path d="M0 0 C1.32 0 2.64 0 4 0 C7.57142857 7.28571429 7.57142857 7.28571429 6 12 C5.01 12 4.02 12 3 12 C2.67 9.36 2.34 6.72 2 4 C1.34 4 0.68 4 0 4 C0 2.68 0 1.36 0 0 Z " fill="#273335" transform="translate(255,355)"/>
<path d="M0 0 C0.99 0.33 1.98 0.66 3 1 C0.74907362 5.50185275 -3.85887418 9.23924946 -8 12 C-10.15234375 11.6015625 -10.15234375 11.6015625 -12 11 C-11.30132812 10.37351562 -10.60265625 9.74703125 -9.8828125 9.1015625 C-8.97273438 8.28429687 -8.06265625 7.46703125 -7.125 6.625 C-5.76761719 5.40683594 -5.76761719 5.40683594 -4.3828125 4.1640625 C-2.89103817 2.80923795 -1.42494565 1.42494565 0 0 Z " fill="#E1E6E9" transform="translate(340,280)"/>
<path d="M0 0 C1.98 0 3.96 0 6 0 C7.31625194 2.63250388 6.74813658 3.80179056 6.0625 6.625 C5.86785156 7.44226563 5.67320312 8.25953125 5.47265625 9.1015625 C5.23869141 10.04128906 5.23869141 10.04128906 5 11 C4.34 10.34 3.68 9.68 3 9 C2.01 9.495 2.01 9.495 1 10 C1.226875 9.236875 1.45375 8.47375 1.6875 7.6875 C1.790625 6.800625 1.89375 5.91375 2 5 C0.66621425 3.1645201 0.66621425 3.1645201 -1 2 C-0.67 1.34 -0.34 0.68 0 0 Z " fill="#272A2F" transform="translate(343,246)"/>
<path d="M0 0 C0 0.99 0 1.98 0 3 C-3.50776784 4.60355101 -6.14354879 5.22036864 -10 5 C-9.67 4.01 -9.34 3.02 -9 2 C-9.66 2 -10.32 2 -11 2 C-11 1.34 -11 0.68 -11 0 C-6.94952424 -1.35015859 -4.2079832 -0.62084998 0 0 Z " fill="#1C242A" transform="translate(319,293)"/>
<path d="M0 0 C1.90401138 1.90401138 2.93520439 3.33425686 3.19921875 6.046875 C3.1886578 8.03233273 3.09915043 10.0169914 3 12 C1.35 11.67 -0.3 11.34 -2 11 C-1.85957123 9.35369672 -1.71250671 7.70795821 -1.5625 6.0625 C-1.48128906 5.14597656 -1.40007812 4.22945313 -1.31640625 3.28515625 C-1 1 -1 1 0 0 Z " fill="#2A2D2F" transform="translate(371,408)"/>
<path d="M0 0 C1.4370809 -0.05422947 2.87475462 -0.09289723 4.3125 -0.125 C5.11300781 -0.14820313 5.91351563 -0.17140625 6.73828125 -0.1953125 C9 0 9 0 12 2 C11.67 2.66 11.34 3.32 11 4 C7.37 4 3.74 4 0 4 C0 2.68 0 1.36 0 0 Z " fill="#F4F8FA" transform="translate(335,411)"/>
<path d="M0 0 C0.99 0.33 1.98 0.66 3 1 C2.01 4.3 1.02 7.6 0 11 C-0.66 11 -1.32 11 -2 11 C-2.66 8.36 -3.32 5.72 -4 3 C-2.1875 1.4375 -2.1875 1.4375 0 0 Z " fill="#E7EBEE" transform="translate(192,399)"/>
<path d="M0 0 C0.66 0.33 1.32 0.66 2 1 C2 1.66 2 2.32 2 3 C0.35 2.67 -1.3 2.34 -3 2 C-2.01 1.34 -1.02 0.68 0 0 Z M-7 1 C-6.34 1 -5.68 1 -5 1 C-5 1.66 -5 2.32 -5 3 C-2.03 3.495 -2.03 3.495 1 4 C-0.32 4.33 -1.64 4.66 -3 5 C-2.67 6.32 -2.34 7.64 -2 9 C-3.9375 8.6875 -3.9375 8.6875 -6 8 C-6.33 7.01 -6.66 6.02 -7 5 C-8.65 4.67 -10.3 4.34 -12 4 C-12 3.67 -12 3.34 -12 3 C-10.35 3 -8.7 3 -7 3 C-7 2.34 -7 1.68 -7 1 Z " fill="#292D34" transform="translate(294,289)"/>
<path d="M0 0 C0.66 0.33 1.32 0.66 2 1 C2 1.99 2 2.98 2 4 C2.185625 4.86625 2.37125 5.7325 2.5625 6.625 C2.706875 7.40875 2.85125 8.1925 3 9 C2 10 2 10 -0.06640625 10.09765625 C-0.89011719 10.08605469 -1.71382813 10.07445312 -2.5625 10.0625 C-3.38878906 10.05347656 -4.21507812 10.04445312 -5.06640625 10.03515625 C-5.70449219 10.02355469 -6.34257812 10.01195312 -7 10 C-6.34 9.608125 -5.68 9.21625 -5 8.8125 C-4.34 8.214375 -3.68 7.61625 -3 7 C-2.95936168 5.33382885 -2.957279 3.66611905 -3 2 C-2.01 1.34 -1.02 0.68 0 0 Z " fill="#1E222B" transform="translate(364,211)"/>
<path d="M0 0 C4.29 0 8.58 0 13 0 C11.68 0.33 10.36 0.66 9 1 C8.67 2.32 8.34 3.64 8 5 C5.36 5.33 2.72 5.66 0 6 C0.185625 5.38125 0.37125 4.7625 0.5625 4.125 C1.23686176 1.95839822 1.23686176 1.95839822 0 0 Z " fill="#171E24" transform="translate(296,201)"/>
<path d="M0 0 C0.9075 0.103125 1.815 0.20625 2.75 0.3125 C3.08 1.9625 3.41 3.6125 3.75 5.3125 C0.12 5.3125 -3.51 5.3125 -7.25 5.3125 C-4.05 0.38942308 -4.05 0.38942308 0 0 Z " fill="#1B2125" transform="translate(372.25,379.6875)"/>
<path d="M0 0 C0.99 0.33 1.98 0.66 3 1 C3.33 3.31 3.66 5.62 4 8 C2.906875 7.835 1.81375 7.67 0.6875 7.5 C-2.87525873 6.93281816 -2.87525873 6.93281816 -6 7 C-6.33 6.34 -6.66 5.68 -7 5 C-5.25 3.4375 -5.25 3.4375 -3 2 C-0.75 2.3125 -0.75 2.3125 1 3 C0.67 2.01 0.34 1.02 0 0 Z " fill="#1A242B" transform="translate(315,254)"/>
<path d="M0 0 C1.3303125 0.4021875 1.3303125 0.4021875 2.6875 0.8125 C2.6875 1.4725 2.6875 2.1325 2.6875 2.8125 C3.6775 3.1425 4.6675 3.4725 5.6875 3.8125 C5.3575 4.4725 5.0275 5.1325 4.6875 5.8125 C3.470625 5.6475 2.25375 5.4825 1 5.3125 C-2.12857836 4.91795459 -5.15418804 4.71380275 -8.3125 4.8125 C-4.12788462 -0.23365385 -4.12788462 -0.23365385 0 0 Z " fill="#1A2125" transform="translate(278.3125,209.1875)"/>
<path d="M0 0 C0.66 0.66 1.32 1.32 2 2 C1.34 2 0.68 2 0 2 C0 3.65 0 5.3 0 7 C-1.98 7.99 -1.98 7.99 -4 9 C-4 9.66 -4 10.32 -4 11 C-4.99 10.67 -5.98 10.34 -7 10 C-5.64615385 3.47692308 -5.64615385 3.47692308 -2.375 1.0625 C-1.199375 0.5365625 -1.199375 0.5365625 0 0 Z " fill="#2C3037" transform="translate(198,141)"/>
<path d="M0 0 C2.31 0.66 4.62 1.32 7 2 C6.67 3.65 6.34 5.3 6 7 C4.02 7 2.04 7 0 7 C-1.33332095 4.3333581 -0.67102033 2.83319697 0 0 Z " fill="#20252C" transform="translate(336,186)"/>
<path d="M0 0 C0.99 0.33 1.98 0.66 3 1 C2.67 1.33 2.34 1.66 2 2 C2.83333333 4.16666667 2.83333333 4.16666667 5 5 C2.02588876 6.23921302 -0.85262818 7.30058404 -4 8 C-4 7.34 -4 6.68 -4 6 C-4.66 5.67 -5.32 5.34 -6 5 C-1.60546875 0.99609375 -1.60546875 0.99609375 0 0 Z " fill="#1C2027" transform="translate(202,136)"/>
<path d="M0 0 C0.33 0 0.66 0 1 0 C1 4.29 1 8.58 1 13 C-0.65 13.33 -2.3 13.66 -4 14 C-3.52525225 11.85318469 -3.04508251 9.70756772 -2.5625 7.5625 C-2.29566406 6.36753906 -2.02882812 5.17257812 -1.75390625 3.94140625 C-1 1 -1 1 0 0 Z " fill="#C5C8CB" transform="translate(197,406)"/>
<path d="M0 0 C2.3129482 2.3129482 2.49580975 3.47904875 3.125 6.625 C3.29257812 7.44226563 3.46015625 8.25953125 3.6328125 9.1015625 C3.81457031 10.04128906 3.81457031 10.04128906 4 11 C1.03 10.505 1.03 10.505 -2 10 C-1.125 5.25 -1.125 5.25 0 3 C-0.66 2.67 -1.32 2.34 -2 2 C-1.34 2 -0.68 2 0 2 C0 1.34 0 0.68 0 0 Z " fill="#30343B" transform="translate(265,374)"/>
<path d="M0 0 C1.4606285 2.64738916 2 3.89448334 2 7 C0.02 7.99 0.02 7.99 -2 9 C-2.66 8.34 -3.32 7.68 -4 7 C-4 6.01 -4 5.02 -4 4 C-4.66 3.67 -5.32 3.34 -6 3 C-3.375 0 -3.375 0 0 0 Z " fill="#262B33" transform="translate(362,342)"/>
<path d="M0 0 C0.66 0.33 1.32 0.66 2 1 C2 1.66 2 2.32 2 3 C3.65 3.33 5.3 3.66 7 4 C6.01 4.33 5.02 4.66 4 5 C4 5.66 4 6.32 4 7 C2.72125 6.71125 1.4425 6.4225 0.125 6.125 C-0.59429687 5.96257812 -1.31359375 5.80015625 -2.0546875 5.6328125 C-4 5 -4 5 -6 3 C-5.195625 2.87625 -4.39125 2.7525 -3.5625 2.625 C-2.716875 2.41875 -1.87125 2.2125 -1 2 C-0.67 1.34 -0.34 0.68 0 0 Z " fill="#2C3138" transform="translate(206,309)"/>
<path d="M0 0 C1.5 1.375 1.5 1.375 3 3 C3 3.66 3 4.32 3 5 C3.99 5.33 4.98 5.66 6 6 C6.6875 8.0625 6.6875 8.0625 7 10 C6.01 9.34 5.02 8.68 4 8 C4 8.66 4 9.32 4 10 C3.34 10 2.68 10 2 10 C2.33 11.98 2.66 13.96 3 16 C0.2656934 13.2656934 0.04659335 11.23006445 -0.09765625 7.421875 C-0.08025391 6.09929687 -0.08025391 6.09929687 -0.0625 4.75 C-0.05347656 3.85796875 -0.04445312 2.9659375 -0.03515625 2.046875 C-0.02355469 1.37140625 -0.01195312 0.6959375 0 0 Z " fill="#1B222A" transform="translate(255,251)"/>
<path d="M0 0 C1.32 0.66 2.64 1.32 4 2 C3.67 3.98 3.34 5.96 3 8 C2.67 7.34 2.34 6.68 2 6 C-0.64 6 -3.28 6 -6 6 C-6 5.34 -6 4.68 -6 4 C-4.02 3.67 -2.04 3.34 0 3 C0 2.01 0 1.02 0 0 Z " fill="#1D2027" transform="translate(284,409)"/>
<path d="M0 0 C2.97 0 5.94 0 9 0 C9 2.64 9 5.28 9 8 C8.34 7.34 7.68 6.68 7 6 C6.34 6 5.68 6 5 6 C5 5.01 5 4.02 5 3 C3.35 3 1.7 3 0 3 C0 2.01 0 1.02 0 0 Z " fill="#12161C" transform="translate(311,408)"/>
<path d="M0 0 C1.65 0.33 3.3 0.66 5 1 C4.125 6.875 4.125 6.875 3 8 C1.33382885 8.04063832 -0.33388095 8.042721 -2 8 C-1.34 5.36 -0.68 2.72 0 0 Z " fill="#313334" transform="translate(214,412)"/>
<path d="M0 0 C0.66 0.66 1.32 1.32 2 2 C3.32 1.34 4.64 0.68 6 0 C5.34 3.3 4.68 6.6 4 10 C2.68 10 1.36 10 0 10 C0 6.7 0 3.4 0 0 Z " fill="#191F25" transform="translate(234,254)"/>
<path d="M0 0 C1.98 0 3.96 0 6 0 C6.33 1.65 6.66 3.3 7 5 C4.69 5 2.38 5 0 5 C0 3.35 0 1.7 0 0 Z " fill="#F4F7FA" transform="translate(362,402)"/>
<path d="M0 0 C0.66 0.99 1.32 1.98 2 3 C1.34 3.66 0.68 4.32 0 5 C0.33 5.99 0.66 6.98 1 8 C0.34 8.66 -0.32 9.32 -1 10 C-1 9.34 -1 8.68 -1 8 C-2.98 8.99 -2.98 8.99 -5 10 C-5.33 9.01 -5.66 8.02 -6 7 C-5.34 7 -4.68 7 -4 7 C-3.896875 6.21625 -3.79375 5.4325 -3.6875 4.625 C-3 2 -3 2 0 0 Z " fill="#2A2F38" transform="translate(266,266)"/>
<path d="M0 0 C0.99 0.99 1.98 1.98 3 3 C1.63016497 6.16115776 1.0109362 6.9927092 -2 9 C-2.66 7.35 -3.32 5.7 -4 4 C-2.68 3.34 -1.36 2.68 0 2 C0 1.34 0 0.68 0 0 Z " fill="#EEF3F6" transform="translate(310,249)"/>
<path d="M0 0 C0.66 0 1.32 0 2 0 C2.33 1.98 2.66 3.96 3 6 C3.99 6 4.98 6 6 6 C5.34 7.32 4.68 8.64 4 10 C0.64229123 7.76152748 0.7854035 7.59041601 0 4 C-0.66 3.34 -1.32 2.68 -2 2 C-1.34 1.34 -0.68 0.68 0 0 Z " fill="#1C2328" transform="translate(318,247)"/>
<path d="M0 0 C2.9375 0.8125 2.9375 0.8125 6 2 C6.33 2.99 6.66 3.98 7 5 C5.02 5.66 3.04 6.32 1 7 C0.34 6.34 -0.32 5.68 -1 5 C-0.625 2.375 -0.625 2.375 0 0 Z " fill="#34383B" transform="translate(281,370)"/>
<path d="M0 0 C0.33 0.66 0.66 1.32 1 2 C1.99 2.33 2.98 2.66 4 3 C3.67 3.99 3.34 4.98 3 6 C2.67 5.67 2.34 5.34 2 5 C0.35 6.65 -1.3 8.3 -3 10 C-3.99 8.02 -4.98 6.04 -6 4 C-4 4 -2 4 0 4 C-0.33 3.01 -0.66 2.02 -1 1 C-0.67 0.67 -0.34 0.34 0 0 Z " fill="#1B2228" transform="translate(312,363)"/>
<path d="M0 0 C0.33 1.32 0.66 2.64 1 4 C0.01 4.66 -0.98 5.32 -2 6 C-1.34 6.66 -0.68 7.32 0 8 C-1.65 8.66 -3.3 9.32 -5 10 C-5.66 9.34 -6.32 8.68 -7 8 C-6.67 7.01 -6.34 6.02 -6 5 C-5.01 5 -4.02 5 -3 5 C-3 4.34 -3 3.68 -3 3 C-1.5 1.375 -1.5 1.375 0 0 Z " fill="#2A3239" transform="translate(295,354)"/>
<path d="M0 0 C0.66 0.33 1.32 0.66 2 1 C0.38405168 3.04119788 -1.2856382 5.04072937 -3 7 C-3.66 7 -4.32 7 -5 7 C-5 7.66 -5 8.32 -5 9 C-5.66 9 -6.32 9 -7 9 C-7 9.66 -7 10.32 -7 11 C-9 12.625 -9 12.625 -11 14 C-11 11 -11 11 -8.59375 8.30078125 C-7.5700032 7.29697757 -6.5383946 6.30114351 -5.5 5.3125 C-4.97535156 4.80138672 -4.45070313 4.29027344 -3.91015625 3.76367188 C-2.61339096 2.50227292 -1.30753883 1.25022788 0 0 Z " fill="#E8EDEE" transform="translate(339,239)"/>
<path d="M0 0 C0.66 0 1.32 0 2 0 C2 0.99 2 1.98 2 3 C2.66 2.67 3.32 2.34 4 2 C2.92598892 4.91517292 2.22189824 6.77810176 0 9 C-0.99 7.68 -1.98 6.36 -3 5 C-1.125 1.125 -1.125 1.125 0 0 Z " fill="#192125" transform="translate(267,216)"/>
<path d="M0 0 C0.99 0 1.98 0 3 0 C3.12375 0.5775 3.2475 1.155 3.375 1.75 C4.00648824 4.02335767 4.88858191 5.9253529 6 8 C5.01 8.33 4.02 8.66 3 9 C2.34 7.68 1.68 6.36 1 5 C0.34 5 -0.32 5 -1 5 C-1.33 4.01 -1.66 3.02 -2 2 C-1.34 1.34 -0.68 0.68 0 0 Z " fill="#1C2126" transform="translate(325,282)"/>
<path d="M0 0 C0.99 1.485 0.99 1.485 2 3 C2.66 3 3.32 3 4 3 C4.625 5.875 4.625 5.875 5 9 C4.34 9.66 3.68 10.32 3 11 C0.39665076 8.28817788 0.00543309 7.10866187 -0.1875 3.25 C-0.125625 2.1775 -0.06375 1.105 0 0 Z " fill="#192023" transform="translate(282,349)"/>
<path d="M0 0 C2.88437779 1.29299694 4.87219421 2.65941363 7 5 C6.67 5.66 6.34 6.32 6 7 C5.34 6.67 4.68 6.34 4 6 C3.01 6.33 2.02 6.66 1 7 C0.34 6.01 -0.32 5.02 -1 4 C-0.67 3.67 -0.34 3.34 0 3 C-0.66 2.67 -1.32 2.34 -2 2 C-1.34 1.34 -0.68 0.68 0 0 Z " fill="#1B2125" transform="translate(332,138)"/>
<path d="M0 0 C1.5 1.1875 1.5 1.1875 3 3 C3.1875 5.6875 3.1875 5.6875 3 8 C2.34 8 1.68 8 1 8 C1.33 9.32 1.66 10.64 2 12 C1.01 12.495 1.01 12.495 0 13 C-1 6.25 -1 6.25 -1 4 C-0.34 4 0.32 4 1 4 C0.67 2.68 0.34 1.36 0 0 Z " fill="#282F36" transform="translate(258,257)"/>
<path d="M0 0 C2.5625 2.25 2.5625 2.25 5 5 C5 7.25 5 7.25 4 9 C3.01 9.33 2.02 9.66 1 10 C1 8 1 6 1 4 C0.34 4 -0.32 4 -1 4 C-0.67 2.68 -0.34 1.36 0 0 Z " fill="#1F212A" transform="translate(297,240)"/>
<path d="M0 0 C3.3 0.33 6.6 0.66 10 1 C10.33 1.99 10.66 2.98 11 4 C9.741875 4.020625 8.48375 4.04125 7.1875 4.0625 C6.47980469 4.07410156 5.77210938 4.08570313 5.04296875 4.09765625 C3 4 3 4 0 3 C0 2.01 0 1.02 0 0 Z " fill="#151B21" transform="translate(215,411)"/>
<path d="M0 0 C2.97 0 5.94 0 9 0 C9 0.99 9 1.98 9 3 C6.03 3 3.06 3 0 3 C0 2.01 0 1.02 0 0 Z " fill="#161B1E" transform="translate(335,407)"/>
<path d="M0 0 C0.042721 1.66611905 0.04063832 3.33382885 0 5 C-1 6 -1 6 -2.84765625 6.09765625 C-4.8984375 6.06510417 -6.94921875 6.03255208 -9 6 C-8.38125 5.9175 -7.7625 5.835 -7.125 5.75 C-4.8234856 5.20005805 -4.8234856 5.20005805 -3.875 3 C-3.441875 2.01 -3.441875 2.01 -3 1 C-1 0 -1 0 0 0 Z " fill="#41454B" transform="translate(318,347)"/>
<path d="M0 0 C1.0625 1.875 1.0625 1.875 2 4 C1.67 4.66 1.34 5.32 1 6 C-0.32 6 -1.64 6 -3 6 C-3.33 4.68 -3.66 3.36 -4 2 C-2.68 1.34 -1.36 0.68 0 0 Z " fill="#323336" transform="translate(192,414)"/>
<path d="M0 0 C2.31 0 4.62 0 7 0 C7.33 0.99 7.66 1.98 8 3 C5.69 3.66 3.38 4.32 1 5 C1.33 4.01 1.66 3.02 2 2 C1.34 2 0.68 2 0 2 C0 1.34 0 0.68 0 0 Z " fill="#282B2E" transform="translate(219,398)"/>
<path d="M0 0 C0.66 0 1.32 0 2 0 C2 0.66 2 1.32 2 2 C2.66 2 3.32 2 4 2 C4 2.66 4 3.32 4 4 C3.34 4 2.68 4 2 4 C2 4.66 2 5.32 2 6 C1.01 6.33 0.02 6.66 -1 7 C-1.625 4.625 -1.625 4.625 -2 2 C-1.34 1.34 -0.68 0.68 0 0 Z " fill="#31343C" transform="translate(188,408)"/>
<path d="M0 0 C3.96 0.33 7.92 0.66 12 1 C12 1.33 12 1.66 12 2 C10.7625 2.12375 9.525 2.2475 8.25 2.375 C5.1237803 2.75746305 2.71120763 3.30549523 0 5 C0 3.35 0 1.7 0 0 Z " fill="#E4E9EB" transform="translate(256,384)"/>
<path d="M0 0 C1.32 0.33 2.64 0.66 4 1 C4 2.32 4 3.64 4 5 C5.65 5.33 7.3 5.66 9 6 C9 6.33 9 6.66 9 7 C6.69 7 4.38 7 2 7 C0.5393715 4.35261084 0 3.10551666 0 0 Z " fill="#171E22" transform="translate(256,378)"/>
<path d="M0 0 C1.32 0 2.64 0 4 0 C3.625 2.9375 3.625 2.9375 3 6 C2.01 6.495 2.01 6.495 1 7 C0.34 6.34 -0.32 5.68 -1 5 C-1 1 -1 1 0 0 Z " fill="#1A1F26" transform="translate(362,339)"/>
<path d="M0 0 C0.66 0 1.32 0 2 0 C2.33 1.32 2.66 2.64 3 4 C3.66 4 4.32 4 5 4 C4.67 4.99 4.34 5.98 4 7 C2.0625 6.25 2.0625 6.25 0 5 C-0.8125 2.9375 -0.8125 2.9375 -1 1 C-0.67 0.67 -0.34 0.34 0 0 Z " fill="#1E2429" transform="translate(263,274)"/>
<path d="M0 0 C1.32 0 2.64 0 4 0 C4.33 0.99 4.66 1.98 5 3 C3.35 4.32 1.7 5.64 0 7 C0 4.69 0 2.38 0 0 Z " fill="#293537" transform="translate(329,242)"/>
<path d="M0 0 C0.66 0.99 1.32 1.98 2 3 C4.49664253 3.88590541 6.32115341 4 9 4 C8.67 4.99 8.34 5.98 8 7 C5.36 6.67 2.72 6.34 0 6 C-0.38218767 4.34385343 -0.71395102 2.67542976 -1 1 C-0.67 0.67 -0.34 0.34 0 0 Z " fill="#293338" transform="translate(333,232)"/>
<path d="M0 0 C2.00720923 0.28674418 4.0085944 0.61866701 6 1 C6 2.98 6 4.96 6 7 C5.01 7.33 4.02 7.66 3 8 C2.896875 7.401875 2.79375 6.80375 2.6875 6.1875 C1.91123545 3.71756736 0.92911079 2.67748765 -1 1 C-0.67 0.67 -0.34 0.34 0 0 Z " fill="#1C1F27" transform="translate(348,221)"/>
<path d="M0 0 C0.99 0 1.98 0 3 0 C2.67 1.65 2.34 3.3 2 5 C0.35 5 -1.3 5 -3 5 C-1.125 1.125 -1.125 1.125 0 0 Z " fill="#2A2D2D" transform="translate(274,415)"/>
<path d="M0 0 C-0.33 1.98 -0.66 3.96 -1 6 C-1.99 6 -2.98 6 -4 6 C-4.33 4.35 -4.66 2.7 -5 1 C-2 0 -2 0 0 0 Z " fill="#1E2126" transform="translate(280,406)"/>
<path d="M0 0 C2.0625 1.75 2.0625 1.75 4 4 C3.75 6.25 3.75 6.25 3 8 C1.68 7.34 0.36 6.68 -1 6 C-1 5.34 -1 4.68 -1 4 C-0.34 4 0.32 4 1 4 C0.67 2.68 0.34 1.36 0 0 Z " fill="#23252E" transform="translate(249,401)"/>
<path d="M0 0 C1.98 0 3.96 0 6 0 C5.2884375 0.6496875 5.2884375 0.6496875 4.5625 1.3125 C2.76313043 3.02309613 2.76313043 3.02309613 2 6 C0.68 5.67 -0.64 5.34 -2 5 C-1.34 3.35 -0.68 1.7 0 0 Z " fill="#484B4E" transform="translate(196,397)"/>
<path d="M0 0 C1.98 0.99 1.98 0.99 4 2 C3.625 4.4375 3.625 4.4375 3 7 C2.01 7.495 2.01 7.495 1 8 C0.67 5.36 0.34 2.72 0 0 Z " fill="#D7DBDD" transform="translate(305,368)"/>
<path d="M0 0 C1.32 0.66 2.64 1.32 4 2 C3.01 2.495 3.01 2.495 2 3 C2 3.66 2 4.32 2 5 C-0.64 5 -3.28 5 -6 5 C-6.33 4.34 -6.66 3.68 -7 3 C-5.02 3 -3.04 3 -1 3 C-0.67 2.01 -0.34 1.02 0 0 Z " fill="#1B2227" transform="translate(208,342)"/>
<path d="M0 0 C1.65 0 3.3 0 5 0 C5.66 2.31 6.32 4.62 7 7 C5 5.625 5 5.625 3 4 C3 3.34 3 2.68 3 2 C2.01 2 1.02 2 0 2 C0 1.34 0 0.68 0 0 Z " fill="#33353A" transform="translate(248,338)"/>
<path d="M0 0 C2.15377564 2.62198774 3.40072174 4.64404172 4 8 C2.35 7.67 0.7 7.34 -1 7 C-1 2 -1 2 0 0 Z " fill="#32373F" transform="translate(304,250)"/>
<path d="M0 0 C1.32 0.66 2.64 1.32 4 2 C0.04 3.98 0.04 3.98 -4 6 C-3 2 -3 2 0 0 Z " fill="#2E3438" transform="translate(375,212)"/>
<path d="M0 0 C0.66 0 1.32 0 2 0 C2.33 2.31 2.66 4.62 3 7 C1.68 7 0.36 7 -1 7 C-0.67 4.69 -0.34 2.38 0 0 Z " fill="#D4DBDF" transform="translate(222,404)"/>
<path d="M0 0 C2.35953094 2.35953094 2.49141413 3.77895617 3 7 C1.35 7 -0.3 7 -2 7 C-1.34 4.69 -0.68 2.38 0 0 Z " fill="#D9DCE1" transform="translate(281,404)"/>
<path d="M0 0 C1.32 0 2.64 0 4 0 C3.8125 1.8125 3.8125 1.8125 3 4 C0.4375 5.75 0.4375 5.75 -2 7 C-1.34 4.69 -0.68 2.38 0 0 Z " fill="#2D3337" transform="translate(237,344)"/>
<path d="M0 0 C1.32 0 2.64 0 4 0 C3.60196439 2.88575819 3.20990931 3.82189513 0.9375 5.75 C0.298125 6.1625 -0.34125 6.575 -1 7 C-1.33 5.68 -1.66 4.36 -2 3 C-1.34 3 -0.68 3 0 3 C0 2.01 0 1.02 0 0 Z " fill="#363A3E" transform="translate(371,338)"/>
<path d="M0 0 C0 3 0 3 -1 6 C-1.66 6 -2.32 6 -3 6 C-3 6.66 -3 7.32 -3 8 C-4.32 8.33 -5.64 8.66 -7 9 C-2.85714286 2.57142857 -2.85714286 2.57142857 0 0 Z " fill="#DFE1E3" transform="translate(326,252)"/>
<path d="M0 0 C0.66 0.33 1.32 0.66 2 1 C1.52797514 5.24822374 -0.96655518 7.19989709 -4 10 C-3.39561204 6.61542745 -2.06998635 4.6999822 0 2 C0 1.34 0 0.68 0 0 Z " fill="#1C1E29" transform="translate(302,248)"/>
<path d="M0 0 C0.33 0.99 0.66 1.98 1 3 C0.525625 3.45375 0.05125 3.9075 -0.4375 4.375 C-2.09027808 5.93258204 -2.09027808 5.93258204 -3 8 C-4.32 7.67 -5.64 7.34 -7 7 C-4.69 4.69 -2.38 2.38 0 0 Z " fill="#11181C" transform="translate(330,235)"/>
<path d="M0 0 C2.875 0.3125 2.875 0.3125 6 1 C6.66 1.99 7.32 2.98 8 4 C7.01 4.495 7.01 4.495 6 5 C4.68 4.01 3.36 3.02 2 2 C2 2.66 2 3.32 2 4 C1.34 3.67 0.68 3.34 0 3 C0 2.01 0 1.02 0 0 Z " fill="#3C4246" transform="translate(288,233)"/>
<path d="M0 0 C0.33 0.66 0.66 1.32 1 2 C-0.36125 1.938125 -0.36125 1.938125 -1.75 1.875 C-4.8782046 1.99531556 -6.38614006 2.3914708 -9 4 C-9.66 3.34 -10.32 2.68 -11 2 C-6.9647331 -0.34608541 -4.52610235 -1.68112373 0 0 Z " fill="#3C4044" transform="translate(378,207)"/>
<path d="M0 0 C1.65 0 3.3 0 5 0 C5 0.99 5 1.98 5 3 C3.02 3.33 1.04 3.66 -1 4 C-0.67 2.68 -0.34 1.36 0 0 Z " fill="#E2E3E5" transform="translate(310,412)"/>
<path d="M0 0 C0.99 0.33 1.98 0.66 3 1 C3 1.66 3 2.32 3 3 C2.01 3.495 2.01 3.495 1 4 C0.53476937 5.89533342 0.53476937 5.89533342 0.375 8.0625 C0.25125 9.361875 0.1275 10.66125 0 12 C-0.33 12 -0.66 12 -1 12 C-1.02687279 10.18757948 -1.04633715 8.37504767 -1.0625 6.5625 C-1.07410156 5.55316406 -1.08570313 4.54382813 -1.09765625 3.50390625 C-1 1 -1 1 0 0 Z " fill="#F4F7FA" transform="translate(347,372)"/>
<path d="M0 0 C2.4375 0.375 2.4375 0.375 5 1 C6.60725635 4.21451269 6.05748185 7.43612536 6 11 C5.67 11 5.34 11 5 11 C5 8.69 5 6.38 5 4 C4.360625 3.71125 3.72125 3.4225 3.0625 3.125 C1 2 1 2 0 0 Z " fill="#3C454B" transform="translate(314,364)"/>
<path d="M0 0 C0.66 0.99 1.32 1.98 2 3 C2.66 2.67 3.32 2.34 4 2 C4.99 2.33 5.98 2.66 7 3 C6.67 3.66 6.34 4.32 6 5 C3.4375 5.625 3.4375 5.625 1 6 C0.34 4.35 -0.32 2.7 -1 1 C-0.67 0.67 -0.34 0.34 0 0 Z " fill="#182129" transform="translate(346,358)"/>
<path d="M0 0 C3.3 0 6.6 0 10 0 C10 0.66 10 1.32 10 2 C7.69 1.67 5.38 1.34 3 1 C2.67 1.99 2.34 2.98 2 4 C1.34 4 0.68 4 0 4 C0 2.68 0 1.36 0 0 Z " fill="#F2F6F8" transform="translate(201,348)"/>
<path d="M0 0 C0.33 1.32 0.66 2.64 1 4 C0.01 4.33 -0.98 4.66 -2 5 C-2.66 5.66 -3.32 6.32 -4 7 C-4.33 5.35 -4.66 3.7 -5 2 C-2 0 -2 0 0 0 Z " fill="#2E3236" transform="translate(292,338)"/>
<path d="M0 0 C0.66 0.99 1.32 1.98 2 3 C1.67 3.99 1.34 4.98 1 6 C0.01 6.33 -0.98 6.66 -2 7 C-2.6875 5.1875 -2.6875 5.1875 -3 3 C-1.5625 1.25 -1.5625 1.25 0 0 Z " fill="#2D3236" transform="translate(200,298)"/>
<path d="M0 0 C0.66 0.33 1.32 0.66 2 1 C1.67 1.66 1.34 2.32 1 3 C2.32 2.67 3.64 2.34 5 2 C3.1875 4 3.1875 4 1 6 C0.01 6 -0.98 6 -2 6 C-1.125 1.125 -1.125 1.125 0 0 Z " fill="#1F2629" transform="translate(322,289)"/>
<path d="M0 0 C2.97 0.495 2.97 0.495 6 1 C5.67 2.65 5.34 4.3 5 6 C4.67 5.34 4.34 4.68 4 4 C1.98330173 2.86649466 1.98330173 2.86649466 0 2 C0 1.34 0 0.68 0 0 Z " fill="#192026" transform="translate(315,203)"/>
<path d="M0 0 C0.33 0 0.66 0 1 0 C1.33 2.64 1.66 5.28 2 8 C0.125 8.625 0.125 8.625 -2 9 C-2.66 8.34 -3.32 7.68 -4 7 C-3.34 6.34 -2.68 5.68 -2 5 C-1.34 5.33 -0.68 5.66 0 6 C0 4.02 0 2.04 0 0 Z " fill="#434952" transform="translate(305,406)"/>
<path d="M0 0 C2.64 0 5.28 0 8 0 C7 2 7 2 6 3 C4.33382885 3.04063832 2.66611905 3.042721 1 3 C0.67 2.01 0.34 1.02 0 0 Z " fill="#26292B" transform="translate(306,399)"/>
<path d="M0 0 C2.31 0 4.62 0 7 0 C6.67 1.32 6.34 2.64 6 4 C4.02 3.34 2.04 2.68 0 2 C0 1.34 0 0.68 0 0 Z " fill="#1F2022" transform="translate(278,398)"/>
<path d="M0 0 C2 2 2 2 2 6 C0.68 6 -0.64 6 -2 6 C-2.33 4.68 -2.66 3.36 -3 2 C-2.01 1.34 -1.02 0.68 0 0 Z " fill="#212B30" transform="translate(227,378)"/>
<path d="M0 0 C1.65 0.99 3.3 1.98 5 3 C2 5 2 5 -0.1875 4.625 C-0.785625 4.41875 -1.38375 4.2125 -2 4 C-1.34 2.68 -0.68 1.36 0 0 Z " fill="#1E242D" transform="translate(352,350)"/>
<path d="M0 0 C0.99 0.495 0.99 0.495 2 1 C2 1.66 2 2.32 2 3 C2.66 3 3.32 3 4 3 C3.67 4.65 3.34 6.3 3 8 C2.01 7.67 1.02 7.34 0 7 C0 4.69 0 2.38 0 0 Z " fill="#20242A" transform="translate(259,265)"/>
<path d="M0 0 C2.52588702 2.36292656 3.88820837 3.66462511 5 7 C4.34 7.66 3.68 8.32 3 9 C-0.22265625 3.7265625 -0.22265625 3.7265625 -1 2 C-0.67 1.34 -0.34 0.68 0 0 Z " fill="#EAEEF0" transform="translate(295,232)"/>
<path d="M0 0 C2 2 2 2 2.125 5.125 C2.08375 6.07375 2.0425 7.0225 2 8 C1.01 8.33 0.02 8.66 -1 9 C-0.67 7.02 -0.34 5.04 0 3 C-0.66 2.67 -1.32 2.34 -2 2 C-1.34 2 -0.68 2 0 2 C0 1.34 0 0.68 0 0 Z " fill="#1C242D" transform="translate(220,174)"/>
<path d="M0 0 C2 3 2 3 2 7 C0.35 7 -1.3 7 -3 7 C-3 6.34 -3 5.68 -3 5 C-2.34 4.67 -1.68 4.34 -1 4 C-0.34786708 1.97536745 -0.34786708 1.97536745 0 0 Z " fill="#3A3A3B" transform="translate(231,413)"/>
<path d="M0 0 C0.66 0.33 1.32 0.66 2 1 C1.67 1.66 1.34 2.32 1 3 C1.66 3 2.32 3 3 3 C2.34 4.32 1.68 5.64 1 7 C0.34 6.67 -0.32 6.34 -1 6 C-1.042721 4.33388095 -1.04063832 2.66617115 -1 1 C-0.67 0.67 -0.34 0.34 0 0 Z " fill="#1F2427" transform="translate(332,400)"/>
<path d="M0 0 C0.66 0 1.32 0 2 0 C2 2.64 2 5.28 2 8 C1.01 7.67 0.02 7.34 -1 7 C-0.67 4.69 -0.34 2.38 0 0 Z " fill="#43474A" transform="translate(213,339)"/>
<path d="M0 0 C1.98 0.99 3.96 1.98 6 3 C5.01 3.99 4.02 4.98 3 6 C2.01 5.67 1.02 5.34 0 5 C0 3.35 0 1.7 0 0 Z " fill="#EAEBED" transform="translate(273,289)"/>
<path d="M0 0 C0.99 0.33 1.98 0.66 3 1 C3 1.66 3 2.32 3 3 C3.66 3.33 4.32 3.66 5 4 C5 4.66 5 5.32 5 6 C3.35 5.67 1.7 5.34 0 5 C-0.5625 3.0625 -0.5625 3.0625 -1 1 C-0.67 0.67 -0.34 0.34 0 0 Z " fill="#1F262E" transform="translate(271,215)"/>
<path d="M0 0 C2.09749995 2.35968744 2.96905704 3.54616994 3.1875 6.75 C3.125625 7.4925 3.06375 8.235 3 9 C2.67 7.68 2.34 6.36 2 5 C1.01 5 0.02 5 -1 5 C-0.67 3.35 -0.34 1.7 0 0 Z " fill="#31363B" transform="translate(371,408)"/>
<path d="M0 0 C1.32 0 2.64 0 4 0 C3.625 2.4375 3.625 2.4375 3 5 C2.01 5.495 2.01 5.495 1 6 C0.67 4.02 0.34 2.04 0 0 Z " fill="#262833" transform="translate(185,404)"/>
<path d="M0 0 C0.66 0.33 1.32 0.66 2 1 C0.35 2.65 -1.3 4.3 -3 6 C-3 4.68 -3 3.36 -3 2 C-2.01 1.34 -1.02 0.68 0 0 Z " fill="#E3E6E8" transform="translate(355,344)"/>
<path d="M0 0 C0.99 0.33 1.98 0.66 3 1 C3.33 1.99 3.66 2.98 4 4 C2 7 2 7 0 8 C0 5.36 0 2.72 0 0 Z " fill="#2E313C" transform="translate(263,229)"/>
</svg>
